solid default:solid1
  facet normal -5.296102e-001 5.732821e-001 5.886815e-001
    outer loop
      vertex -6.634139e-001 5.566704e-001 5.000000e-001
      vertex -4.924039e-001 4.131759e-001 7.660444e-001
      vertex -4.330127e-001 7.500000e-001 5.000000e-001
    endloop
  endfacet
  facet normal -4.156035e-001 5.732821e-001 6.773630e-001
    outer loop
      vertex -4.924039e-001 4.131759e-001 7.660444e-001
      vertex -3.213938e-001 5.566704e-001 7.660444e-001
      vertex -4.330127e-001 7.500000e-001 5.000000e-001
    endloop
  endfacet
  facet normal -6.169444e-001 6.465642e-001 -3.912161e-001
    outer loop
      vertex -6.634139e-001 5.566704e-001 -5.000000e-001
      vertex -7.544065e-001 6.330222e-001 -1.736482e-001
      vertex -4.330127e-001 7.500000e-001 -5.000000e-001
    endloop
  endfacet
  facet normal -5.599410e-001 7.452969e-001 -2.824321e-001
    outer loop
      vertex -7.544065e-001 6.330222e-001 -1.736482e-001
      vertex -4.924039e-001 8.528685e-001 -1.736482e-001
      vertex -4.330127e-001 7.500000e-001 -5.000000e-001
    endloop
  endfacet
  facet normal -3.084722e-001 3.097401e-001 -8.818099e-001
    outer loop
      vertex -2.620026e-001 2.198463e-001 -9.396926e-001
      vertex -4.924039e-001 4.131759e-001 -7.660444e-001
      vertex -1.710101e-001 2.961981e-001 -9.396926e-001
    endloop
  endfacet
  facet normal -3.282693e-001 4.220148e-001 -8.239272e-001
    outer loop
      vertex -4.924039e-001 4.131759e-001 -7.660444e-001
      vertex -3.213938e-001 5.566704e-001 -7.660444e-001
      vertex -1.710101e-001 2.961981e-001 -9.396926e-001
    endloop
  endfacet
  facet normal -2.013409e-001 4.952969e-001 8.239272e-001
    outer loop
      vertex -1.710101e-001 2.961981e-001 9.396926e-001
      vertex -1.116189e-001 6.330222e-001 7.660444e-001
      vertex -3.213938e-001 5.566704e-001 7.660444e-001
    endloop
  endfacet
  facet normal -3.654756e-001 8.575716e-001 2.824321e-001
    outer loop
      vertex -4.924039e-001 8.528685e-001 1.736482e-001
      vertex -4.330127e-001 7.500000e-001 5.000000e-001
      vertex -1.710101e-001 9.698463e-001 1.736482e-001
    endloop
  endfacet
  facet normal -2.514688e-001 8.575716e-001 3.912161e-001
    outer loop
      vertex -4.330127e-001 7.500000e-001 5.000000e-001
      vertex -1.503837e-001 8.528685e-001 5.000000e-001
      vertex -1.710101e-001 9.698463e-001 1.736482e-001
    endloop
  endfacet
  facet normal -2.712659e-001 8.918611e-001 -2.824321e-001
    outer loop
      vertex -4.924039e-001 8.528685e-001 -1.736482e-001
      vertex -1.710101e-001 9.698463e-001 -1.736482e-001
      vertex -1.503837e-001 8.528685e-001 -5.000000e-001
    endloop
  endfacet
  facet normal -2.886751e-001 6.465642e-001 -6.773630e-001
    outer loop
      vertex -3.213938e-001 5.566704e-001 -7.660444e-001
      vertex -4.330127e-001 7.500000e-001 -5.000000e-001
      vertex -1.116189e-001 6.330222e-001 -7.660444e-001
    endloop
  endfacet
  facet normal -2.316718e-001 7.452969e-001 -5.886815e-001
    outer loop
      vertex -4.330127e-001 7.500000e-001 -5.000000e-001
      vertex -1.503837e-001 8.528685e-001 -5.000000e-001
      vertex -1.116189e-001 6.330222e-001 -7.660444e-001
    endloop
  endfacet
  facet normal -1.979706e-002 5.342895e-001 8.239272e-001
    outer loop
      vertex -1.116189e-001 6.330222e-001 7.660444e-001
      vertex -5.939117e-002 3.368241e-001 9.396926e-001
      vertex 1.116189e-001 6.330222e-001 7.660444e-001
    endloop
  endfacet
  facet normal 3.720630e-002 4.355568e-001 8.818099e-001
    outer loop
      vertex -5.939117e-002 3.368241e-001 9.396926e-001
      vertex 5.939117e-002 3.368241e-001 9.396926e-001
      vertex 1.116189e-001 6.330222e-001 7.660444e-001
    endloop
  endfacet
  facet normal -3.720630e-002 7.795864e-001 5.886815e-001
    outer loop
      vertex -1.116189e-001 6.330222e-001 7.660444e-001
      vertex 1.503837e-001 8.528685e-001 5.000000e-001
      vertex -1.503837e-001 8.528685e-001 5.000000e-001
    endloop
  endfacet
  facet normal -5.700336e-002 9.698463e-001 -5.788273e-002
    outer loop
      vertex -1.710101e-001 9.698463e-001 -1.736482e-001
      vertex -1.710101e-001 9.698463e-001 1.736482e-001
      vertex 1.710101e-001 9.698463e-001 -1.736482e-001
    endloop
  endfacet
  facet normal 5.700336e-002 9.698463e-001 5.788273e-002
    outer loop
      vertex -1.710101e-001 9.698463e-001 1.736482e-001
      vertex 1.710101e-001 9.698463e-001 1.736482e-001
      vertex 1.710101e-001 9.698463e-001 -1.736482e-001
    endloop
  endfacet
  facet normal 3.720630e-002 7.795864e-001 -5.886815e-001
    outer loop
      vertex -1.503837e-001 8.528685e-001 -5.000000e-001
      vertex 1.503837e-001 8.528685e-001 -5.000000e-001
      vertex 1.116189e-001 6.330222e-001 -7.660444e-001
    endloop
  endfacet
  facet normal -3.720630e-002 4.355568e-001 -8.818099e-001
    outer loop
      vertex -5.939117e-002 3.368241e-001 -9.396926e-001
      vertex -1.116189e-001 6.330222e-001 -7.660444e-001
      vertex 5.939117e-002 3.368241e-001 -9.396926e-001
    endloop
  endfacet
  facet normal 1.979706e-002 5.342895e-001 -8.239272e-001
    outer loop
      vertex -1.116189e-001 6.330222e-001 -7.660444e-001
      vertex 1.116189e-001 6.330222e-001 -7.660444e-001
      vertex 5.939117e-002 3.368241e-001 -9.396926e-001
    endloop
  endfacet
  facet normal 2.316718e-001 7.452969e-001 5.886815e-001
    outer loop
      vertex 1.503837e-001 8.528685e-001 5.000000e-001
      vertex 1.116189e-001 6.330222e-001 7.660444e-001
      vertex 4.330127e-001 7.500000e-001 5.000000e-001
    endloop
  endfacet
  facet normal 2.886751e-001 6.465642e-001 6.773630e-001
    outer loop
      vertex 1.116189e-001 6.330222e-001 7.660444e-001
      vertex 3.213938e-001 5.566704e-001 7.660444e-001
      vertex 4.330127e-001 7.500000e-001 5.000000e-001
    endloop
  endfacet
  facet normal 2.712659e-001 8.918611e-001 2.824321e-001
    outer loop
      vertex 1.503837e-001 8.528685e-001 5.000000e-001
      vertex 4.924039e-001 8.528685e-001 1.736482e-001
      vertex 1.710101e-001 9.698463e-001 1.736482e-001
    endloop
  endfacet
  facet normal 2.514688e-001 8.575716e-001 -3.912161e-001
    outer loop
      vertex 1.503837e-001 8.528685e-001 -5.000000e-001
      vertex 1.710101e-001 9.698463e-001 -1.736482e-001
      vertex 4.330127e-001 7.500000e-001 -5.000000e-001
    endloop
  endfacet
  facet normal 3.654756e-001 8.575716e-001 -2.824321e-001
    outer loop
      vertex 1.710101e-001 9.698463e-001 -1.736482e-001
      vertex 4.924039e-001 8.528685e-001 -1.736482e-001
      vertex 4.330127e-001 7.500000e-001 -5.000000e-001
    endloop
  endfacet
  facet normal 2.013409e-001 4.952969e-001 -8.239272e-001
    outer loop
      vertex 1.116189e-001 6.330222e-001 -7.660444e-001
      vertex 3.213938e-001 5.566704e-001 -7.660444e-001
      vertex 1.710101e-001 2.961981e-001 -9.396926e-001
    endloop
  endfacet
  facet normal 3.282693e-001 4.220148e-001 8.239272e-001
    outer loop
      vertex 3.213938e-001 5.566704e-001 7.660444e-001
      vertex 1.710101e-001 2.961981e-001 9.396926e-001
      vertex 4.924039e-001 4.131759e-001 7.660444e-001
    endloop
  endfacet
  facet normal 3.084722e-001 3.097401e-001 8.818099e-001
    outer loop
      vertex 1.710101e-001 2.961981e-001 9.396926e-001
      vertex 2.620026e-001 2.198463e-001 9.396926e-001
      vertex 4.924039e-001 4.131759e-001 7.660444e-001
    endloop
  endfacet
  facet normal 5.599410e-001 7.452969e-001 2.824321e-001
    outer loop
      vertex 4.924039e-001 8.528685e-001 1.736482e-001
      vertex 4.330127e-001 7.500000e-001 5.000000e-001
      vertex 7.544065e-001 6.330222e-001 1.736482e-001
    endloop
  endfacet
  facet normal 6.169444e-001 6.465642e-001 3.912161e-001
    outer loop
      vertex 4.330127e-001 7.500000e-001 5.000000e-001
      vertex 6.634139e-001 5.566704e-001 5.000000e-001
      vertex 7.544065e-001 6.330222e-001 1.736482e-001
    endloop
  endfacet
  facet normal 4.156035e-001 5.732821e-001 -6.773630e-001
    outer loop
      vertex 3.213938e-001 5.566704e-001 -7.660444e-001
      vertex 4.330127e-001 7.500000e-001 -5.000000e-001
      vertex 4.924039e-001 4.131759e-001 -7.660444e-001
    endloop
  endfacet
  facet normal 5.296102e-001 5.732821e-001 -5.886815e-001
    outer loop
      vertex 4.330127e-001 7.500000e-001 -5.000000e-001
      vertex 6.634139e-001 5.566704e-001 -5.000000e-001
      vertex 4.924039e-001 4.131759e-001 -7.660444e-001
    endloop
  endfacet
  facet normal -5.296102e-001 -5.732821e-001 -5.886815e-001
    outer loop
      vertex -6.634139e-001 -5.566704e-001 -5.000000e-001
      vertex -4.924039e-001 -4.131759e-001 -7.660444e-001
      vertex -4.330127e-001 -7.500000e-001 -5.000000e-001
    endloop
  endfacet
  facet normal -4.156035e-001 -5.732821e-001 -6.773630e-001
    outer loop
      vertex -4.924039e-001 -4.131759e-001 -7.660444e-001
      vertex -3.213938e-001 -5.566704e-001 -7.660444e-001
      vertex -4.330127e-001 -7.500000e-001 -5.000000e-001
    endloop
  endfacet
  facet normal -6.670723e-001 -7.063043e-001 5.788273e-002
    outer loop
      vertex -7.544065e-001 -6.330222e-001 1.736482e-001
      vertex -7.544065e-001 -6.330222e-001 -1.736482e-001
      vertex -4.924039e-001 -8.528685e-001 1.736482e-001
    endloop
  endfacet
  facet normal -5.797381e-001 -7.795864e-001 -5.788273e-002
    outer loop
      vertex -7.544065e-001 -6.330222e-001 -1.736482e-001
      vertex -4.924039e-001 -8.528685e-001 -1.736482e-001
      vertex -4.924039e-001 -8.528685e-001 1.736482e-001
    endloop
  endfacet
  facet normal -4.924039e-001 -5.088389e-001 6.773630e-001
    outer loop
      vertex -4.924039e-001 -4.131759e-001 7.660444e-001
      vertex -6.634139e-001 -5.566704e-001 5.000000e-001
      vertex -3.213938e-001 -5.566704e-001 7.660444e-001
    endloop
  endfacet
  facet normal -4.726068e-001 -6.211136e-001 5.886815e-001
    outer loop
      vertex -6.634139e-001 -5.566704e-001 5.000000e-001
      vertex -4.330127e-001 -7.500000e-001 5.000000e-001
      vertex -3.213938e-001 -5.566704e-001 7.660444e-001
    endloop
  endfacet
  facet normal -2.013409e-001 -4.952969e-001 -8.239272e-001
    outer loop
      vertex -3.213938e-001 -5.566704e-001 -7.660444e-001
      vertex -1.710101e-001 -2.961981e-001 -9.396926e-001
      vertex -1.116189e-001 -6.330222e-001 -7.660444e-001
    endloop
  endfacet
  facet normal -1.140067e-001 -4.220148e-001 -8.818099e-001
    outer loop
      vertex -1.710101e-001 -2.961981e-001 -9.396926e-001
      vertex -5.939117e-002 -3.368241e-001 -9.396926e-001
      vertex -1.116189e-001 -6.330222e-001 -7.660444e-001
    endloop
  endfacet
  facet normal -3.654756e-001 -8.575716e-001 -2.824321e-001
    outer loop
      vertex -4.924039e-001 -8.528685e-001 -1.736482e-001
      vertex -4.330127e-001 -7.500000e-001 -5.000000e-001
      vertex -1.710101e-001 -9.698463e-001 -1.736482e-001
    endloop
  endfacet
  facet normal -2.514688e-001 -8.575716e-001 -3.912161e-001
    outer loop
      vertex -4.330127e-001 -7.500000e-001 -5.000000e-001
      vertex -1.503837e-001 -8.528685e-001 -5.000000e-001
      vertex -1.710101e-001 -9.698463e-001 -1.736482e-001
    endloop
  endfacet
  facet normal -3.586001e-001 -8.185790e-001 3.912161e-001
    outer loop
      vertex -4.330127e-001 -7.500000e-001 5.000000e-001
      vertex -4.924039e-001 -8.528685e-001 1.736482e-001
      vertex -1.503837e-001 -8.528685e-001 5.000000e-001
    endloop
  endfacet
  facet normal -2.712659e-001 -8.918611e-001 2.824321e-001
    outer loop
      vertex -4.924039e-001 -8.528685e-001 1.736482e-001
      vertex -1.710101e-001 -9.698463e-001 1.736482e-001
      vertex -1.503837e-001 -8.528685e-001 5.000000e-001
    endloop
  endfacet
  facet normal -1.839317e-001 -3.965642e-001 8.818099e-001
    outer loop
      vertex -1.710101e-001 -2.961981e-001 9.396926e-001
      vertex -3.213938e-001 -5.566704e-001 7.660444e-001
      vertex -5.939117e-002 -3.368241e-001 9.396926e-001
    endloop
  endfacet
  facet normal -1.641346e-001 -5.088389e-001 8.239272e-001
    outer loop
      vertex -3.213938e-001 -5.566704e-001 7.660444e-001
      vertex -1.116189e-001 -6.330222e-001 7.660444e-001
      vertex -5.939117e-002 -3.368241e-001 9.396926e-001
    endloop
  endfacet
  facet normal -3.720630e-002 -7.795864e-001 -5.886815e-001
    outer loop
      vertex -1.503837e-001 -8.528685e-001 -5.000000e-001
      vertex -1.116189e-001 -6.330222e-001 -7.660444e-001
      vertex 1.503837e-001 -8.528685e-001 -5.000000e-001
    endloop
  endfacet
  facet normal 5.012791e-002 -7.063043e-001 -6.773630e-001
    outer loop
      vertex -1.116189e-001 -6.330222e-001 -7.660444e-001
      vertex 1.116189e-001 -6.330222e-001 -7.660444e-001
      vertex 1.503837e-001 -8.528685e-001 -5.000000e-001
    endloop
  endfacet
  facet normal -5.700336e-002 -9.698463e-001 5.788273e-002
    outer loop
      vertex -1.710101e-001 -9.698463e-001 1.736482e-001
      vertex -1.710101e-001 -9.698463e-001 -1.736482e-001
      vertex 1.710101e-001 -9.698463e-001 1.736482e-001
    endloop
  endfacet
  facet normal 5.700336e-002 -9.698463e-001 -5.788273e-002
    outer loop
      vertex -1.710101e-001 -9.698463e-001 -1.736482e-001
      vertex 1.710101e-001 -9.698463e-001 -1.736482e-001
      vertex 1.710101e-001 -9.698463e-001 1.736482e-001
    endloop
  endfacet
  facet normal -5.012791e-002 -7.063043e-001 6.773630e-001
    outer loop
      vertex -1.116189e-001 -6.330222e-001 7.660444e-001
      vertex -1.503837e-001 -8.528685e-001 5.000000e-001
      vertex 1.116189e-001 -6.330222e-001 7.660444e-001
    endloop
  endfacet
  facet normal 3.720630e-002 -7.795864e-001 5.886815e-001
    outer loop
      vertex -1.503837e-001 -8.528685e-001 5.000000e-001
      vertex 1.503837e-001 -8.528685e-001 5.000000e-001
      vertex 1.116189e-001 -6.330222e-001 7.660444e-001
    endloop
  endfacet
  facet normal 1.641346e-001 -5.088389e-001 -8.239272e-001
    outer loop
      vertex 1.116189e-001 -6.330222e-001 -7.660444e-001
      vertex 5.939117e-002 -3.368241e-001 -9.396926e-001
      vertex 3.213938e-001 -5.566704e-001 -7.660444e-001
    endloop
  endfacet
  facet normal 1.839317e-001 -3.965642e-001 -8.818099e-001
    outer loop
      vertex 5.939117e-002 -3.368241e-001 -9.396926e-001
      vertex 1.710101e-001 -2.961981e-001 -9.396926e-001
      vertex 3.213938e-001 -5.566704e-001 -7.660444e-001
    endloop
  endfacet
  facet normal 2.712659e-001 -8.918611e-001 -2.824321e-001
    outer loop
      vertex 1.710101e-001 -9.698463e-001 -1.736482e-001
      vertex 1.503837e-001 -8.528685e-001 -5.000000e-001
      vertex 4.924039e-001 -8.528685e-001 -1.736482e-001
    endloop
  endfacet
  facet normal 3.586001e-001 -8.185790e-001 -3.912161e-001
    outer loop
      vertex 1.503837e-001 -8.528685e-001 -5.000000e-001
      vertex 4.330127e-001 -7.500000e-001 -5.000000e-001
      vertex 4.924039e-001 -8.528685e-001 -1.736482e-001
    endloop
  endfacet
  facet normal 2.514688e-001 -8.575716e-001 3.912161e-001
    outer loop
      vertex 1.503837e-001 -8.528685e-001 5.000000e-001
      vertex 1.710101e-001 -9.698463e-001 1.736482e-001
      vertex 4.330127e-001 -7.500000e-001 5.000000e-001
    endloop
  endfacet
  facet normal 3.654756e-001 -8.575716e-001 2.824321e-001
    outer loop
      vertex 1.710101e-001 -9.698463e-001 1.736482e-001
      vertex 4.924039e-001 -8.528685e-001 1.736482e-001
      vertex 4.330127e-001 -7.500000e-001 5.000000e-001
    endloop
  endfacet
  facet normal 1.140067e-001 -4.220148e-001 8.818099e-001
    outer loop
      vertex 5.939117e-002 -3.368241e-001 9.396926e-001
      vertex 1.116189e-001 -6.330222e-001 7.660444e-001
      vertex 1.710101e-001 -2.961981e-001 9.396926e-001
    endloop
  endfacet
  facet normal 2.013409e-001 -4.952969e-001 8.239272e-001
    outer loop
      vertex 1.116189e-001 -6.330222e-001 7.660444e-001
      vertex 3.213938e-001 -5.566704e-001 7.660444e-001
      vertex 1.710101e-001 -2.961981e-001 9.396926e-001
    endloop
  endfacet
  facet normal 4.726068e-001 -6.211136e-001 -5.886815e-001
    outer loop
      vertex 4.330127e-001 -7.500000e-001 -5.000000e-001
      vertex 3.213938e-001 -5.566704e-001 -7.660444e-001
      vertex 6.634139e-001 -5.566704e-001 -5.000000e-001
    endloop
  endfacet
  facet normal 4.924039e-001 -5.088389e-001 -6.773630e-001
    outer loop
      vertex 3.213938e-001 -5.566704e-001 -7.660444e-001
      vertex 4.924039e-001 -4.131759e-001 -7.660444e-001
      vertex 6.634139e-001 -5.566704e-001 -5.000000e-001
    endloop
  endfacet
  facet normal 5.797381e-001 -7.795864e-001 5.788273e-002
    outer loop
      vertex 4.924039e-001 -8.528685e-001 1.736482e-001
      vertex 4.924039e-001 -8.528685e-001 -1.736482e-001
      vertex 7.544065e-001 -6.330222e-001 1.736482e-001
    endloop
  endfacet
  facet normal 6.670723e-001 -7.063043e-001 -5.788273e-002
    outer loop
      vertex 4.924039e-001 -8.528685e-001 -1.736482e-001
      vertex 7.544065e-001 -6.330222e-001 -1.736482e-001
      vertex 7.544065e-001 -6.330222e-001 1.736482e-001
    endloop
  endfacet
  facet normal 4.156035e-001 -5.732821e-001 6.773630e-001
    outer loop
      vertex 3.213938e-001 -5.566704e-001 7.660444e-001
      vertex 4.330127e-001 -7.500000e-001 5.000000e-001
      vertex 4.924039e-001 -4.131759e-001 7.660444e-001
    endloop
  endfacet
  facet normal 5.296102e-001 -5.732821e-001 5.886815e-001
    outer loop
      vertex 4.330127e-001 -7.500000e-001 5.000000e-001
      vertex 6.634139e-001 -5.566704e-001 5.000000e-001
      vertex 4.924039e-001 -4.131759e-001 7.660444e-001
    endloop
  endfacet
  facet normal 4.528098e-001 -2.842895e-001 -8.239272e-001
    outer loop
      vertex 4.924039e-001 -4.131759e-001 -7.660444e-001
      vertex 2.620026e-001 -2.198463e-001 -9.396926e-001
      vertex 6.040228e-001 -2.198463e-001 -7.660444e-001
    endloop
  endfacet
  facet normal 3.958064e-001 -1.855568e-001 -8.818099e-001
    outer loop
      vertex 2.620026e-001 -2.198463e-001 -9.396926e-001
      vertex 3.213938e-001 -1.169778e-001 -9.396926e-001
      vertex 6.040228e-001 -2.198463e-001 -7.660444e-001
    endloop
  endfacet
  facet normal 7.810790e-001 -5.088389e-001 -2.824321e-001
    outer loop
      vertex 7.544065e-001 -6.330222e-001 -1.736482e-001
      vertex 6.634139e-001 -5.566704e-001 -5.000000e-001
      vertex 9.254166e-001 -3.368241e-001 -1.736482e-001
    endloop
  endfacet
  facet normal 8.008761e-001 -3.965642e-001 -3.912161e-001
    outer loop
      vertex 6.634139e-001 -5.566704e-001 -5.000000e-001
      vertex 8.137977e-001 -2.961981e-001 -5.000000e-001
      vertex 9.254166e-001 -3.368241e-001 -1.736482e-001
    endloop
  endfacet
  facet normal 7.438727e-001 -4.952969e-001 3.912161e-001
    outer loop
      vertex 6.634139e-001 -5.566704e-001 5.000000e-001
      vertex 7.544065e-001 -6.330222e-001 1.736482e-001
      vertex 8.137977e-001 -2.961981e-001 5.000000e-001
    endloop
  endfacet
  facet normal 8.312069e-001 -4.220148e-001 2.824321e-001
    outer loop
      vertex 7.544065e-001 -6.330222e-001 1.736482e-001
      vertex 9.254166e-001 -3.368241e-001 1.736482e-001
      vertex 8.137977e-001 -2.961981e-001 5.000000e-001
    endloop
  endfacet
  facet normal 3.586001e-001 -2.500000e-001 8.818099e-001
    outer loop
      vertex 2.620026e-001 -2.198463e-001 9.396926e-001
      vertex 4.924039e-001 -4.131759e-001 7.660444e-001
      vertex 3.213938e-001 -1.169778e-001 9.396926e-001
    endloop
  endfacet
  facet normal 4.726068e-001 -2.500000e-001 8.239272e-001
    outer loop
      vertex 4.924039e-001 -4.131759e-001 7.660444e-001
      vertex 6.040228e-001 -2.198463e-001 7.660444e-001
      vertex 3.213938e-001 -1.169778e-001 9.396926e-001
    endloop
  endfacet
  facet normal 6.565385e-001 4.220148e-001 5.886815e-001
    outer loop
      vertex 6.634139e-001 5.566704e-001 5.000000e-001
      vertex 4.924039e-001 4.131759e-001 7.660444e-001
      vertex 8.137977e-001 2.961981e-001 5.000000e-001
    endloop
  endfacet
  facet normal 6.367414e-001 3.097401e-001 6.773630e-001
    outer loop
      vertex 4.924039e-001 4.131759e-001 7.660444e-001
      vertex 6.040228e-001 2.198463e-001 7.660444e-001
      vertex 8.137977e-001 2.961981e-001 5.000000e-001
    endloop
  endfacet
  facet normal 8.114099e-001 5.342895e-001 -5.788273e-002
    outer loop
      vertex 7.544065e-001 6.330222e-001 -1.736482e-001
      vertex 7.544065e-001 6.330222e-001 1.736482e-001
      vertex 9.254166e-001 3.368241e-001 -1.736482e-001
    endloop
  endfacet
  facet normal 8.684132e-001 4.355568e-001 5.788273e-002
    outer loop
      vertex 7.544065e-001 6.330222e-001 1.736482e-001
      vertex 9.254166e-001 3.368241e-001 1.736482e-001
      vertex 9.254166e-001 3.368241e-001 -1.736482e-001
    endloop
  endfacet
  facet normal 4.726068e-001 2.500000e-001 -8.239272e-001
    outer loop
      vertex 3.213938e-001 1.169778e-001 -9.396926e-001
      vertex 4.924039e-001 4.131759e-001 -7.660444e-001
      vertex 6.040228e-001 2.198463e-001 -7.660444e-001
    endloop
  endfacet
  facet normal 3.586001e-001 2.500000e-001 -8.818099e-001
    outer loop
      vertex 2.620026e-001 2.198463e-001 -9.396926e-001
      vertex 4.924039e-001 4.131759e-001 -7.660444e-001
      vertex 3.213938e-001 1.169778e-001 -9.396926e-001
    endloop
  endfacet
  facet normal 4.354005e-001 -3.899259e-002 -8.818099e-001
    outer loop
      vertex 3.213938e-001 -1.169778e-001 -9.396926e-001
      vertex 3.420201e-001 0.000000e+000 -9.396926e-001
      vertex 6.427876e-001 0.000000e+000 -7.660444e-001
    endloop
  endfacet
  facet normal 5.296102e-001 7.328210e-002 -8.239272e-001
    outer loop
      vertex 3.420201e-001 0.000000e+000 -9.396926e-001
      vertex 6.040228e-001 2.198463e-001 -7.660444e-001
      vertex 6.427876e-001 0.000000e+000 -7.660444e-001
    endloop
  endfacet
  facet normal -6.565385e-001 4.220148e-001 -5.886815e-001
    outer loop
      vertex -6.634139e-001 5.566704e-001 -5.000000e-001
      vertex -4.924039e-001 4.131759e-001 -7.660444e-001
      vertex -8.137977e-001 2.961981e-001 -5.000000e-001
    endloop
  endfacet
  facet normal -6.367414e-001 3.097401e-001 -6.773630e-001
    outer loop
      vertex -4.924039e-001 4.131759e-001 -7.660444e-001
      vertex -6.040228e-001 2.198463e-001 -7.660444e-001
      vertex -8.137977e-001 2.961981e-001 -5.000000e-001
    endloop
  endfacet
  facet normal -8.114099e-001 5.342895e-001 5.788273e-002
    outer loop
      vertex -7.544065e-001 6.330222e-001 1.736482e-001
      vertex -7.544065e-001 6.330222e-001 -1.736482e-001
      vertex -9.254166e-001 3.368241e-001 1.736482e-001
    endloop
  endfacet
  facet normal -8.684132e-001 4.355568e-001 -5.788273e-002
    outer loop
      vertex -7.544065e-001 6.330222e-001 -1.736482e-001
      vertex -9.254166e-001 3.368241e-001 -1.736482e-001
      vertex -9.254166e-001 3.368241e-001 1.736482e-001
    endloop
  endfacet
  facet normal -3.586001e-001 2.500000e-001 8.818099e-001
    outer loop
      vertex -2.620026e-001 2.198463e-001 9.396926e-001
      vertex -4.924039e-001 4.131759e-001 7.660444e-001
      vertex -3.213938e-001 1.169778e-001 9.396926e-001
    endloop
  endfacet
  facet normal -4.726068e-001 2.500000e-001 8.239272e-001
    outer loop
      vertex -4.924039e-001 4.131759e-001 7.660444e-001
      vertex -6.040228e-001 2.198463e-001 7.660444e-001
      vertex -3.213938e-001 1.169778e-001 9.396926e-001
    endloop
  endfacet
  facet normal -3.958064e-001 -1.855568e-001 8.818099e-001
    outer loop
      vertex -6.040228e-001 -2.198463e-001 7.660444e-001
      vertex -2.620026e-001 -2.198463e-001 9.396926e-001
      vertex -3.213938e-001 -1.169778e-001 9.396926e-001
    endloop
  endfacet
  facet normal -4.528098e-001 -2.842895e-001 8.239272e-001
    outer loop
      vertex -4.924039e-001 -4.131759e-001 7.660444e-001
      vertex -2.620026e-001 -2.198463e-001 9.396926e-001
      vertex -6.040228e-001 -2.198463e-001 7.660444e-001
    endloop
  endfacet
  facet normal -5.296102e-001 7.328210e-002 8.239272e-001
    outer loop
      vertex -6.040228e-001 2.198463e-001 7.660444e-001
      vertex -6.427876e-001 -7.871618e-017 7.660444e-001
      vertex -3.420201e-001 -4.188400e-017 9.396926e-001
    endloop
  endfacet
  facet normal -4.354005e-001 -3.899259e-002 8.818099e-001
    outer loop
      vertex -6.427876e-001 -7.871618e-017 7.660444e-001
      vertex -3.213938e-001 -1.169778e-001 9.396926e-001
      vertex -3.420201e-001 -4.188400e-017 9.396926e-001
    endloop
  endfacet
  facet normal -7.810790e-001 -5.088389e-001 2.824321e-001
    outer loop
      vertex -7.544065e-001 -6.330222e-001 1.736482e-001
      vertex -6.634139e-001 -5.566704e-001 5.000000e-001
      vertex -9.254166e-001 -3.368241e-001 1.736482e-001
    endloop
  endfacet
  facet normal -8.008761e-001 -3.965642e-001 3.912161e-001
    outer loop
      vertex -6.634139e-001 -5.566704e-001 5.000000e-001
      vertex -8.137977e-001 -2.961981e-001 5.000000e-001
      vertex -9.254166e-001 -3.368241e-001 1.736482e-001
    endloop
  endfacet
  facet normal -7.438727e-001 -4.952969e-001 -3.912161e-001
    outer loop
      vertex -6.634139e-001 -5.566704e-001 -5.000000e-001
      vertex -7.544065e-001 -6.330222e-001 -1.736482e-001
      vertex -8.137977e-001 -2.961981e-001 -5.000000e-001
    endloop
  endfacet
  facet normal -8.312069e-001 -4.220148e-001 -2.824321e-001
    outer loop
      vertex -7.544065e-001 -6.330222e-001 -1.736482e-001
      vertex -9.254166e-001 -3.368241e-001 -1.736482e-001
      vertex -8.137977e-001 -2.961981e-001 -5.000000e-001
    endloop
  endfacet
  facet normal -3.586001e-001 -2.500000e-001 -8.818099e-001
    outer loop
      vertex -2.620026e-001 -2.198463e-001 -9.396926e-001
      vertex -4.924039e-001 -4.131759e-001 -7.660444e-001
      vertex -3.213938e-001 -1.169778e-001 -9.396926e-001
    endloop
  endfacet
  facet normal -4.726068e-001 -2.500000e-001 -8.239272e-001
    outer loop
      vertex -4.924039e-001 -4.131759e-001 -7.660444e-001
      vertex -6.040228e-001 -2.198463e-001 -7.660444e-001
      vertex -3.213938e-001 -1.169778e-001 -9.396926e-001
    endloop
  endfacet
  facet normal -1.443376e-001 1.720148e-001 9.597951e-001
    outer loop
      vertex -2.620026e-001 2.198463e-001 9.396926e-001
      vertex -4.690514e-017 3.935809e-017 1.000000e+000
      vertex -1.710101e-001 2.961981e-001 9.396926e-001
    endloop
  endfacet
  facet normal 1.443376e-001 1.720148e-001 -9.597951e-001
    outer loop
      vertex 2.620026e-001 2.198463e-001 -9.396926e-001
      vertex 4.690514e-017 3.935809e-017 -1.000000e+000
      vertex 1.710101e-001 2.961981e-001 -9.396926e-001
    endloop
  endfacet
  facet normal 1.443376e-001 -1.720148e-001 -9.597951e-001
    outer loop
      vertex 1.710101e-001 -2.961981e-001 -9.396926e-001
      vertex 3.061516e-017 -5.302701e-017 -1.000000e+000
      vertex 2.620026e-001 -2.198463e-001 -9.396926e-001
    endloop
  endfacet
  facet normal 1.443376e-001 -1.720148e-001 9.597951e-001
    outer loop
      vertex 2.620026e-001 -2.198463e-001 9.396926e-001
      vertex 4.690514e-017 -3.935809e-017 1.000000e+000
      vertex 1.710101e-001 -2.961981e-001 9.396926e-001
    endloop
  endfacet
  facet normal 9.251859e-018 -2.245494e-001 -9.597951e-001
    outer loop
      vertex -5.939117e-002 -3.368241e-001 -9.396926e-001
      vertex -1.063253e-017 -6.030009e-017 -1.000000e+000
      vertex 5.939117e-002 -3.368241e-001 -9.396926e-001
    endloop
  endfacet
  facet normal 1.850372e-017 -2.245494e-001 9.597951e-001
    outer loop
      vertex 5.939117e-002 -3.368241e-001 9.396926e-001
      vertex 1.063253e-017 -6.030009e-017 1.000000e+000
      vertex -5.939117e-002 -3.368241e-001 9.396926e-001
    endloop
  endfacet
  facet normal -1.443376e-001 -1.720148e-001 -9.597951e-001
    outer loop
      vertex -2.620026e-001 -2.198463e-001 -9.396926e-001
      vertex -4.690514e-017 -3.935809e-017 -1.000000e+000
      vertex -1.710101e-001 -2.961981e-001 -9.396926e-001
    endloop
  endfacet
  facet normal -1.443376e-001 -1.720148e-001 9.597951e-001
    outer loop
      vertex -1.710101e-001 -2.961981e-001 9.396926e-001
      vertex -3.061516e-017 -5.302701e-017 1.000000e+000
      vertex -2.620026e-001 -2.198463e-001 9.396926e-001
    endloop
  endfacet
  facet normal -5.227347e-001 1.122747e-001 -8.239272e-001
    outer loop
      vertex -6.040228e-001 2.198463e-001 -7.660444e-001
      vertex -3.213938e-001 1.169778e-001 -9.396926e-001
      vertex -6.427876e-001 7.871618e-017 -7.660444e-001
    endloop
  endfacet
  facet normal -4.354005e-001 3.899259e-002 -8.818099e-001
    outer loop
      vertex -3.213938e-001 1.169778e-001 -9.396926e-001
      vertex -3.420201e-001 4.188400e-017 -9.396926e-001
      vertex -6.427876e-001 7.871618e-017 -7.660444e-001
    endloop
  endfacet
  facet normal -7.742036e-001 -9.873271e-002 -5.886815e-001
    outer loop
      vertex -6.427876e-001 7.871618e-017 -7.660444e-001
      vertex -8.137977e-001 -2.961981e-001 -5.000000e-001
      vertex -8.660254e-001 -1.060540e-016 -5.000000e-001
    endloop
  endfacet
  facet normal -6.868694e-001 -1.720148e-001 -6.773630e-001
    outer loop
      vertex -6.040228e-001 -2.198463e-001 -7.660444e-001
      vertex -8.137977e-001 -2.961981e-001 -5.000000e-001
      vertex -6.427876e-001 7.871618e-017 -7.660444e-001
    endloop
  endfacet
  facet normal -9.080073e-001 2.110074e-001 -2.824321e-001
    outer loop
      vertex -9.254166e-001 3.368241e-001 -1.736482e-001
      vertex -8.137977e-001 2.961981e-001 -5.000000e-001
      vertex -9.848078e-001 1.206002e-016 -1.736482e-001
    endloop
  endfacet
  facet normal -8.882103e-001 9.873271e-002 -3.912161e-001
    outer loop
      vertex -8.137977e-001 2.961981e-001 -5.000000e-001
      vertex -8.660254e-001 -1.060540e-016 -5.000000e-001
      vertex -9.848078e-001 1.206002e-016 -1.736482e-001
    endloop
  endfacet
  facet normal -9.650107e-001 -1.122747e-001 5.788273e-002
    outer loop
      vertex -9.848078e-001 1.206002e-016 -1.736482e-001
      vertex -9.254166e-001 -3.368241e-001 1.736482e-001
      vertex -9.848078e-001 -1.206002e-016 1.736482e-001
    endloop
  endfacet
  facet normal -9.452136e-001 -2.245494e-001 -5.788273e-002
    outer loop
      vertex -9.254166e-001 -3.368241e-001 -1.736482e-001
      vertex -9.254166e-001 -3.368241e-001 1.736482e-001
      vertex -9.848078e-001 1.206002e-016 -1.736482e-001
    endloop
  endfacet
  facet normal -8.684132e-001 2.110074e-001 3.912161e-001
    outer loop
      vertex -8.137977e-001 2.961981e-001 5.000000e-001
      vertex -9.254166e-001 3.368241e-001 1.736482e-001
      vertex -8.660254e-001 1.060540e-016 5.000000e-001
    endloop
  endfacet
  facet normal -9.254166e-001 1.122747e-001 2.824321e-001
    outer loop
      vertex -9.254166e-001 3.368241e-001 1.736482e-001
      vertex -9.848078e-001 -1.206002e-016 1.736482e-001
      vertex -8.660254e-001 1.060540e-016 5.000000e-001
    endloop
  endfacet
  facet normal 2.514688e-001 3.575716e-001 -8.818099e-001
    outer loop
      vertex 1.710101e-001 2.961981e-001 -9.396926e-001
      vertex 3.213938e-001 5.566704e-001 -7.660444e-001
      vertex 2.620026e-001 2.198463e-001 -9.396926e-001
    endloop
  endfacet
  facet normal 1.944655e-001 6.808537e-001 -6.773630e-001
    outer loop
      vertex 1.116189e-001 6.330222e-001 -7.660444e-001
      vertex 1.503837e-001 8.528685e-001 -5.000000e-001
      vertex 3.213938e-001 5.566704e-001 -7.660444e-001
    endloop
  endfacet
  facet normal -5.700336e-002 8.918611e-001 -3.912161e-001
    outer loop
      vertex -1.503837e-001 8.528685e-001 -5.000000e-001
      vertex -1.710101e-001 9.698463e-001 -1.736482e-001
      vertex 1.503837e-001 8.528685e-001 -5.000000e-001
    endloop
  endfacet
  facet normal -3.852726e-001 8.918611e-001 -5.788273e-002
    outer loop
      vertex -4.924039e-001 8.528685e-001 -1.736482e-001
      vertex -4.924039e-001 8.528685e-001 1.736482e-001
      vertex -1.710101e-001 9.698463e-001 -1.736482e-001
    endloop
  endfacet
  facet normal -5.797381e-001 7.795864e-001 5.788273e-002
    outer loop
      vertex -7.544065e-001 6.330222e-001 1.736482e-001
      vertex -4.924039e-001 8.528685e-001 1.736482e-001
      vertex -4.924039e-001 8.528685e-001 -1.736482e-001
    endloop
  endfacet
  facet normal -6.367414e-001 6.808537e-001 2.824321e-001
    outer loop
      vertex -6.634139e-001 5.566704e-001 5.000000e-001
      vertex -4.924039e-001 8.528685e-001 1.736482e-001
      vertex -7.544065e-001 6.330222e-001 1.736482e-001
    endloop
  endfacet
  facet normal -7.438727e-001 4.952969e-001 3.912161e-001
    outer loop
      vertex -6.634139e-001 5.566704e-001 5.000000e-001
      vertex -7.544065e-001 6.330222e-001 1.736482e-001
      vertex -8.137977e-001 2.961981e-001 5.000000e-001
    endloop
  endfacet
  facet normal -6.937448e-001 3.575716e-001 5.886815e-001
    outer loop
      vertex -6.634139e-001 5.566704e-001 5.000000e-001
      vertex -8.137977e-001 2.961981e-001 5.000000e-001
      vertex -6.040228e-001 2.198463e-001 7.660444e-001
    endloop
  endfacet
  facet normal -6.868694e-001 1.720148e-001 6.773630e-001
    outer loop
      vertex -8.137977e-001 2.961981e-001 5.000000e-001
      vertex -6.427876e-001 -7.871618e-017 7.660444e-001
      vertex -6.040228e-001 2.198463e-001 7.660444e-001
    endloop
  endfacet
  facet normal -7.042786e-001 -7.328210e-002 6.773630e-001
    outer loop
      vertex -8.660254e-001 1.060540e-016 5.000000e-001
      vertex -6.040228e-001 -2.198463e-001 7.660444e-001
      vertex -6.427876e-001 -7.871618e-017 7.660444e-001
    endloop
  endfacet
  facet normal -7.612820e-001 -1.720148e-001 5.886815e-001
    outer loop
      vertex -8.137977e-001 -2.961981e-001 5.000000e-001
      vertex -6.040228e-001 -2.198463e-001 7.660444e-001
      vertex -8.660254e-001 1.060540e-016 5.000000e-001
    endloop
  endfacet
  facet normal -2.211380e-001 -3.899259e-002 9.597951e-001
    outer loop
      vertex -5.753768e-017 -2.094200e-017 1.000000e+000
      vertex -3.420201e-001 -4.188400e-017 9.396926e-001
      vertex -3.213938e-001 -1.169778e-001 9.396926e-001
    endloop
  endfacet
  facet normal 5.227347e-001 1.122747e-001 8.239272e-001
    outer loop
      vertex 6.040228e-001 2.198463e-001 7.660444e-001
      vertex 3.213938e-001 1.169778e-001 9.396926e-001
      vertex 6.427876e-001 0.000000e+000 7.660444e-001
    endloop
  endfacet
  facet normal 4.354005e-001 3.899259e-002 8.818099e-001
    outer loop
      vertex 3.213938e-001 1.169778e-001 9.396926e-001
      vertex 3.420201e-001 0.000000e+000 9.396926e-001
      vertex 6.427876e-001 0.000000e+000 7.660444e-001
    endloop
  endfacet
  facet normal 7.742036e-001 -9.873271e-002 5.886815e-001
    outer loop
      vertex 6.427876e-001 0.000000e+000 7.660444e-001
      vertex 8.137977e-001 -2.961981e-001 5.000000e-001
      vertex 8.660254e-001 0.000000e+000 5.000000e-001
    endloop
  endfacet
  facet normal 6.868694e-001 -1.720148e-001 6.773630e-001
    outer loop
      vertex 6.040228e-001 -2.198463e-001 7.660444e-001
      vertex 8.137977e-001 -2.961981e-001 5.000000e-001
      vertex 6.427876e-001 0.000000e+000 7.660444e-001
    endloop
  endfacet
  facet normal 9.080073e-001 2.110074e-001 2.824321e-001
    outer loop
      vertex 9.254166e-001 3.368241e-001 1.736482e-001
      vertex 8.137977e-001 2.961981e-001 5.000000e-001
      vertex 9.848078e-001 0.000000e+000 1.736482e-001
    endloop
  endfacet
  facet normal 8.882103e-001 9.873271e-002 3.912161e-001
    outer loop
      vertex 8.137977e-001 2.961981e-001 5.000000e-001
      vertex 8.660254e-001 0.000000e+000 5.000000e-001
      vertex 9.848078e-001 0.000000e+000 1.736482e-001
    endloop
  endfacet
  facet normal 9.650107e-001 -1.122747e-001 -5.788273e-002
    outer loop
      vertex 9.848078e-001 0.000000e+000 1.736482e-001
      vertex 9.254166e-001 -3.368241e-001 -1.736482e-001
      vertex 9.848078e-001 0.000000e+000 -1.736482e-001
    endloop
  endfacet
  facet normal 9.452136e-001 -2.245494e-001 5.788273e-002
    outer loop
      vertex 9.254166e-001 -3.368241e-001 1.736482e-001
      vertex 9.254166e-001 -3.368241e-001 -1.736482e-001
      vertex 9.848078e-001 0.000000e+000 1.736482e-001
    endloop
  endfacet
  facet normal 8.684132e-001 2.110074e-001 -3.912161e-001
    outer loop
      vertex 8.137977e-001 2.961981e-001 -5.000000e-001
      vertex 9.254166e-001 3.368241e-001 -1.736482e-001
      vertex 8.660254e-001 0.000000e+000 -5.000000e-001
    endloop
  endfacet
  facet normal 9.254166e-001 1.122747e-001 -2.824321e-001
    outer loop
      vertex 9.254166e-001 3.368241e-001 -1.736482e-001
      vertex 9.848078e-001 0.000000e+000 -1.736482e-001
      vertex 8.660254e-001 0.000000e+000 -5.000000e-001
    endloop
  endfacet
  facet normal -2.514688e-001 3.575716e-001 8.818099e-001
    outer loop
      vertex -1.710101e-001 2.961981e-001 9.396926e-001
      vertex -3.213938e-001 5.566704e-001 7.660444e-001
      vertex -2.620026e-001 2.198463e-001 9.396926e-001
    endloop
  endfacet
  facet normal -1.944655e-001 6.808537e-001 6.773630e-001
    outer loop
      vertex -1.116189e-001 6.330222e-001 7.660444e-001
      vertex -1.503837e-001 8.528685e-001 5.000000e-001
      vertex -3.213938e-001 5.566704e-001 7.660444e-001
    endloop
  endfacet
  facet normal 5.700336e-002 8.918611e-001 3.912161e-001
    outer loop
      vertex 1.503837e-001 8.528685e-001 5.000000e-001
      vertex 1.710101e-001 9.698463e-001 1.736482e-001
      vertex -1.503837e-001 8.528685e-001 5.000000e-001
    endloop
  endfacet
  facet normal 3.852726e-001 8.918611e-001 5.788273e-002
    outer loop
      vertex 4.924039e-001 8.528685e-001 1.736482e-001
      vertex 4.924039e-001 8.528685e-001 -1.736482e-001
      vertex 1.710101e-001 9.698463e-001 1.736482e-001
    endloop
  endfacet
  facet normal 5.797381e-001 7.795864e-001 -5.788273e-002
    outer loop
      vertex 7.544065e-001 6.330222e-001 -1.736482e-001
      vertex 4.924039e-001 8.528685e-001 -1.736482e-001
      vertex 4.924039e-001 8.528685e-001 1.736482e-001
    endloop
  endfacet
  facet normal 6.367414e-001 6.808537e-001 -2.824321e-001
    outer loop
      vertex 6.634139e-001 5.566704e-001 -5.000000e-001
      vertex 4.924039e-001 8.528685e-001 -1.736482e-001
      vertex 7.544065e-001 6.330222e-001 -1.736482e-001
    endloop
  endfacet
  facet normal 7.438727e-001 4.952969e-001 -3.912161e-001
    outer loop
      vertex 6.634139e-001 5.566704e-001 -5.000000e-001
      vertex 7.544065e-001 6.330222e-001 -1.736482e-001
      vertex 8.137977e-001 2.961981e-001 -5.000000e-001
    endloop
  endfacet
  facet normal 6.937448e-001 3.575716e-001 -5.886815e-001
    outer loop
      vertex 6.634139e-001 5.566704e-001 -5.000000e-001
      vertex 8.137977e-001 2.961981e-001 -5.000000e-001
      vertex 6.040228e-001 2.198463e-001 -7.660444e-001
    endloop
  endfacet
  facet normal 6.868694e-001 1.720148e-001 -6.773630e-001
    outer loop
      vertex 8.137977e-001 2.961981e-001 -5.000000e-001
      vertex 6.427876e-001 0.000000e+000 -7.660444e-001
      vertex 6.040228e-001 2.198463e-001 -7.660444e-001
    endloop
  endfacet
  facet normal 7.042786e-001 -7.328210e-002 -6.773630e-001
    outer loop
      vertex 8.660254e-001 0.000000e+000 -5.000000e-001
      vertex 6.040228e-001 -2.198463e-001 -7.660444e-001
      vertex 6.427876e-001 0.000000e+000 -7.660444e-001
    endloop
  endfacet
  facet normal 7.612820e-001 -1.720148e-001 -5.886815e-001
    outer loop
      vertex 8.137977e-001 -2.961981e-001 -5.000000e-001
      vertex 6.040228e-001 -2.198463e-001 -7.660444e-001
      vertex 8.660254e-001 0.000000e+000 -5.000000e-001
    endloop
  endfacet
  facet normal 2.211380e-001 -3.899259e-002 -9.597951e-001
    outer loop
      vertex 5.753768e-017 -2.094200e-017 -1.000000e+000
      vertex 3.420201e-001 0.000000e+000 -9.396926e-001
      vertex 3.213938e-001 -1.169778e-001 -9.396926e-001
    endloop
  endfacet
  facet normal -2.514688e-001 -3.575716e-001 -8.818099e-001
    outer loop
      vertex -1.710101e-001 -2.961981e-001 -9.396926e-001
      vertex -3.213938e-001 -5.566704e-001 -7.660444e-001
      vertex -2.620026e-001 -2.198463e-001 -9.396926e-001
    endloop
  endfacet
  facet normal -1.944655e-001 -6.808537e-001 -6.773630e-001
    outer loop
      vertex -1.116189e-001 -6.330222e-001 -7.660444e-001
      vertex -1.503837e-001 -8.528685e-001 -5.000000e-001
      vertex -3.213938e-001 -5.566704e-001 -7.660444e-001
    endloop
  endfacet
  facet normal 5.700336e-002 -8.918611e-001 -3.912161e-001
    outer loop
      vertex 1.503837e-001 -8.528685e-001 -5.000000e-001
      vertex 1.710101e-001 -9.698463e-001 -1.736482e-001
      vertex -1.503837e-001 -8.528685e-001 -5.000000e-001
    endloop
  endfacet
  facet normal 3.852726e-001 -8.918611e-001 -5.788273e-002
    outer loop
      vertex 4.924039e-001 -8.528685e-001 -1.736482e-001
      vertex 4.924039e-001 -8.528685e-001 1.736482e-001
      vertex 1.710101e-001 -9.698463e-001 -1.736482e-001
    endloop
  endfacet
  facet normal 6.367414e-001 -6.808537e-001 2.824321e-001
    outer loop
      vertex 7.544065e-001 -6.330222e-001 1.736482e-001
      vertex 6.634139e-001 -5.566704e-001 5.000000e-001
      vertex 4.924039e-001 -8.528685e-001 1.736482e-001
    endloop
  endfacet
  facet normal 6.937448e-001 -3.575716e-001 5.886815e-001
    outer loop
      vertex 8.137977e-001 -2.961981e-001 5.000000e-001
      vertex 6.040228e-001 -2.198463e-001 7.660444e-001
      vertex 6.634139e-001 -5.566704e-001 5.000000e-001
    endloop
  endfacet
  facet normal 5.296102e-001 -7.328210e-002 8.239272e-001
    outer loop
      vertex 6.427876e-001 0.000000e+000 7.660444e-001
      vertex 3.420201e-001 0.000000e+000 9.396926e-001
      vertex 6.040228e-001 -2.198463e-001 7.660444e-001
    endloop
  endfacet
  facet normal 2.211380e-001 3.899259e-002 9.597951e-001
    outer loop
      vertex 3.213938e-001 1.169778e-001 9.396926e-001
      vertex 5.753768e-017 2.094200e-017 1.000000e+000
      vertex 3.420201e-001 0.000000e+000 9.396926e-001
    endloop
  endfacet
  facet normal 1.944655e-001 1.122747e-001 9.597951e-001
    outer loop
      vertex 2.620026e-001 2.198463e-001 9.396926e-001
      vertex 4.690514e-017 3.935809e-017 1.000000e+000
      vertex 3.213938e-001 1.169778e-001 9.396926e-001
    endloop
  endfacet
  facet normal 3.720630e-002 -4.355568e-001 -8.818099e-001
    outer loop
      vertex 5.939117e-002 -3.368241e-001 -9.396926e-001
      vertex 1.116189e-001 -6.330222e-001 -7.660444e-001
      vertex -5.939117e-002 -3.368241e-001 -9.396926e-001
    endloop
  endfacet
  facet normal 2.886751e-001 -6.465642e-001 -6.773630e-001
    outer loop
      vertex 3.213938e-001 -5.566704e-001 -7.660444e-001
      vertex 4.330127e-001 -7.500000e-001 -5.000000e-001
      vertex 1.116189e-001 -6.330222e-001 -7.660444e-001
    endloop
  endfacet
  facet normal 6.169444e-001 -6.465642e-001 -3.912161e-001
    outer loop
      vertex 6.634139e-001 -5.566704e-001 -5.000000e-001
      vertex 7.544065e-001 -6.330222e-001 -1.736482e-001
      vertex 4.330127e-001 -7.500000e-001 -5.000000e-001
    endloop
  endfacet
  facet normal 8.684132e-001 -4.355568e-001 -5.788273e-002
    outer loop
      vertex 9.254166e-001 -3.368241e-001 -1.736482e-001
      vertex 9.254166e-001 -3.368241e-001 1.736482e-001
      vertex 7.544065e-001 -6.330222e-001 -1.736482e-001
    endloop
  endfacet
  facet normal 9.254166e-001 -1.122747e-001 2.824321e-001
    outer loop
      vertex 9.848078e-001 0.000000e+000 1.736482e-001
      vertex 8.660254e-001 0.000000e+000 5.000000e-001
      vertex 9.254166e-001 -3.368241e-001 1.736482e-001
    endloop
  endfacet
  facet normal 7.612820e-001 1.720148e-001 5.886815e-001
    outer loop
      vertex 8.137977e-001 2.961981e-001 5.000000e-001
      vertex 6.040228e-001 2.198463e-001 7.660444e-001
      vertex 8.660254e-001 0.000000e+000 5.000000e-001
    endloop
  endfacet
  facet normal 4.528098e-001 2.842895e-001 8.239272e-001
    outer loop
      vertex 4.924039e-001 4.131759e-001 7.660444e-001
      vertex 2.620026e-001 2.198463e-001 9.396926e-001
      vertex 6.040228e-001 2.198463e-001 7.660444e-001
    endloop
  endfacet
  facet normal 1.443376e-001 1.720148e-001 9.597951e-001
    outer loop
      vertex 1.710101e-001 2.961981e-001 9.396926e-001
      vertex 3.061516e-017 5.302701e-017 1.000000e+000
      vertex 2.620026e-001 2.198463e-001 9.396926e-001
    endloop
  endfacet
  facet normal 7.680042e-002 2.110074e-001 9.597951e-001
    outer loop
      vertex 5.939117e-002 3.368241e-001 9.396926e-001
      vertex 1.063253e-017 6.030009e-017 1.000000e+000
      vertex 1.710101e-001 2.961981e-001 9.396926e-001
    endloop
  endfacet
  facet normal 3.084722e-001 -3.097401e-001 -8.818099e-001
    outer loop
      vertex 2.620026e-001 -2.198463e-001 -9.396926e-001
      vertex 4.924039e-001 -4.131759e-001 -7.660444e-001
      vertex 1.710101e-001 -2.961981e-001 -9.396926e-001
    endloop
  endfacet
  facet normal 6.367414e-001 -3.097401e-001 -6.773630e-001
    outer loop
      vertex 6.040228e-001 -2.198463e-001 -7.660444e-001
      vertex 8.137977e-001 -2.961981e-001 -5.000000e-001
      vertex 4.924039e-001 -4.131759e-001 -7.660444e-001
    endloop
  endfacet
  facet normal 8.882103e-001 -9.873271e-002 -3.912161e-001
    outer loop
      vertex 8.660254e-001 0.000000e+000 -5.000000e-001
      vertex 9.848078e-001 0.000000e+000 -1.736482e-001
      vertex 8.137977e-001 -2.961981e-001 -5.000000e-001
    endloop
  endfacet
  facet normal 9.452136e-001 2.245494e-001 -5.788273e-002
    outer loop
      vertex 9.254166e-001 3.368241e-001 -1.736482e-001
      vertex 9.254166e-001 3.368241e-001 1.736482e-001
      vertex 9.848078e-001 0.000000e+000 -1.736482e-001
    endloop
  endfacet
  facet normal 7.810790e-001 5.088389e-001 2.824321e-001
    outer loop
      vertex 7.544065e-001 6.330222e-001 1.736482e-001
      vertex 6.634139e-001 5.566704e-001 5.000000e-001
      vertex 9.254166e-001 3.368241e-001 1.736482e-001
    endloop
  endfacet
  facet normal 4.726068e-001 6.211136e-001 5.886815e-001
    outer loop
      vertex 4.330127e-001 7.500000e-001 5.000000e-001
      vertex 3.213938e-001 5.566704e-001 7.660444e-001
      vertex 6.634139e-001 5.566704e-001 5.000000e-001
    endloop
  endfacet
  facet normal 1.641346e-001 5.088389e-001 8.239272e-001
    outer loop
      vertex 1.116189e-001 6.330222e-001 7.660444e-001
      vertex 5.939117e-002 3.368241e-001 9.396926e-001
      vertex 3.213938e-001 5.566704e-001 7.660444e-001
    endloop
  endfacet
  facet normal 1.156482e-017 2.245494e-001 9.597951e-001
    outer loop
      vertex -5.939117e-002 3.368241e-001 9.396926e-001
      vertex -1.063253e-017 6.030009e-017 1.000000e+000
      vertex 5.939117e-002 3.368241e-001 9.396926e-001
    endloop
  endfacet
  facet normal -7.680042e-002 2.110074e-001 9.597951e-001
    outer loop
      vertex -1.710101e-001 2.961981e-001 9.396926e-001
      vertex -3.061516e-017 5.302701e-017 1.000000e+000
      vertex -5.939117e-002 3.368241e-001 9.396926e-001
    endloop
  endfacet
  facet normal 2.211380e-001 3.899259e-002 -9.597951e-001
    outer loop
      vertex 6.123032e-017 0.000000e+000 -1.000000e+000
      vertex 3.213938e-001 1.169778e-001 -9.396926e-001
      vertex 3.420201e-001 0.000000e+000 -9.396926e-001
    endloop
  endfacet
  facet normal 4.224789e-001 1.122747e-001 -8.818099e-001
    outer loop
      vertex 3.213938e-001 1.169778e-001 -9.396926e-001
      vertex 6.040228e-001 2.198463e-001 -7.660444e-001
      vertex 3.420201e-001 0.000000e+000 -9.396926e-001
    endloop
  endfacet
  facet normal 5.866135e-001 3.965642e-001 -6.773630e-001
    outer loop
      vertex 4.924039e-001 4.131759e-001 -7.660444e-001
      vertex 6.634139e-001 5.566704e-001 -5.000000e-001
      vertex 6.040228e-001 2.198463e-001 -7.660444e-001
    endloop
  endfacet
  facet normal 5.296102e-001 7.198463e-001 -3.912161e-001
    outer loop
      vertex 4.330127e-001 7.500000e-001 -5.000000e-001
      vertex 4.924039e-001 8.528685e-001 -1.736482e-001
      vertex 6.634139e-001 5.566704e-001 -5.000000e-001
    endloop
  endfacet
  facet normal 2.781413e-001 9.308537e-001 -5.788273e-002
    outer loop
      vertex 1.710101e-001 9.698463e-001 -1.736482e-001
      vertex 1.710101e-001 9.698463e-001 1.736482e-001
      vertex 4.924039e-001 8.528685e-001 -1.736482e-001
    endloop
  endfacet
  facet normal -5.012791e-002 9.308537e-001 2.824321e-001
    outer loop
      vertex -1.710101e-001 9.698463e-001 1.736482e-001
      vertex -1.503837e-001 8.528685e-001 5.000000e-001
      vertex 1.710101e-001 9.698463e-001 1.736482e-001
    endloop
  endfacet
  facet normal -3.015967e-001 7.198463e-001 5.886815e-001
    outer loop
      vertex -4.330127e-001 7.500000e-001 5.000000e-001
      vertex -3.213938e-001 5.566704e-001 7.660444e-001
      vertex -1.503837e-001 8.528685e-001 5.000000e-001
    endloop
  endfacet
  facet normal -3.586001e-001 3.965642e-001 8.239272e-001
    outer loop
      vertex -4.924039e-001 4.131759e-001 7.660444e-001
      vertex -2.620026e-001 2.198463e-001 9.396926e-001
      vertex -3.213938e-001 5.566704e-001 7.660444e-001
    endloop
  endfacet
  facet normal -1.944655e-001 1.122747e-001 9.597951e-001
    outer loop
      vertex -3.213938e-001 1.169778e-001 9.396926e-001
      vertex -5.753768e-017 2.094200e-017 1.000000e+000
      vertex -2.620026e-001 2.198463e-001 9.396926e-001
    endloop
  endfacet
  facet normal 2.514688e-001 -3.575716e-001 8.818099e-001
    outer loop
      vertex 1.710101e-001 -2.961981e-001 9.396926e-001
      vertex 3.213938e-001 -5.566704e-001 7.660444e-001
      vertex 2.620026e-001 -2.198463e-001 9.396926e-001
    endloop
  endfacet
  facet normal 1.944655e-001 -6.808537e-001 6.773630e-001
    outer loop
      vertex 1.116189e-001 -6.330222e-001 7.660444e-001
      vertex 1.503837e-001 -8.528685e-001 5.000000e-001
      vertex 3.213938e-001 -5.566704e-001 7.660444e-001
    endloop
  endfacet
  facet normal -5.700336e-002 -8.918611e-001 3.912161e-001
    outer loop
      vertex -1.503837e-001 -8.528685e-001 5.000000e-001
      vertex -1.710101e-001 -9.698463e-001 1.736482e-001
      vertex 1.503837e-001 -8.528685e-001 5.000000e-001
    endloop
  endfacet
  facet normal -3.852726e-001 -8.918611e-001 5.788273e-002
    outer loop
      vertex -4.924039e-001 -8.528685e-001 1.736482e-001
      vertex -4.924039e-001 -8.528685e-001 -1.736482e-001
      vertex -1.710101e-001 -9.698463e-001 1.736482e-001
    endloop
  endfacet
  facet normal -6.367414e-001 -6.808537e-001 -2.824321e-001
    outer loop
      vertex -7.544065e-001 -6.330222e-001 -1.736482e-001
      vertex -6.634139e-001 -5.566704e-001 -5.000000e-001
      vertex -4.924039e-001 -8.528685e-001 -1.736482e-001
    endloop
  endfacet
  facet normal -6.937448e-001 -3.575716e-001 -5.886815e-001
    outer loop
      vertex -8.137977e-001 -2.961981e-001 -5.000000e-001
      vertex -6.040228e-001 -2.198463e-001 -7.660444e-001
      vertex -6.634139e-001 -5.566704e-001 -5.000000e-001
    endloop
  endfacet
  facet normal -5.296102e-001 -7.328210e-002 -8.239272e-001
    outer loop
      vertex -6.427876e-001 7.871618e-017 -7.660444e-001
      vertex -3.420201e-001 4.188400e-017 -9.396926e-001
      vertex -6.040228e-001 -2.198463e-001 -7.660444e-001
    endloop
  endfacet
  facet normal -2.211380e-001 3.899259e-002 -9.597951e-001
    outer loop
      vertex -3.213938e-001 1.169778e-001 -9.396926e-001
      vertex -5.753768e-017 2.094200e-017 -1.000000e+000
      vertex -3.420201e-001 4.188400e-017 -9.396926e-001
    endloop
  endfacet
  facet normal -1.944655e-001 1.122747e-001 -9.597951e-001
    outer loop
      vertex -2.620026e-001 2.198463e-001 -9.396926e-001
      vertex -4.690514e-017 3.935809e-017 -1.000000e+000
      vertex -3.213938e-001 1.169778e-001 -9.396926e-001
    endloop
  endfacet
  facet normal -3.720630e-002 -4.355568e-001 8.818099e-001
    outer loop
      vertex -5.939117e-002 -3.368241e-001 9.396926e-001
      vertex -1.116189e-001 -6.330222e-001 7.660444e-001
      vertex 5.939117e-002 -3.368241e-001 9.396926e-001
    endloop
  endfacet
  facet normal -2.886751e-001 -6.465642e-001 6.773630e-001
    outer loop
      vertex -3.213938e-001 -5.566704e-001 7.660444e-001
      vertex -4.330127e-001 -7.500000e-001 5.000000e-001
      vertex -1.116189e-001 -6.330222e-001 7.660444e-001
    endloop
  endfacet
  facet normal -6.169444e-001 -6.465642e-001 3.912161e-001
    outer loop
      vertex -6.634139e-001 -5.566704e-001 5.000000e-001
      vertex -7.544065e-001 -6.330222e-001 1.736482e-001
      vertex -4.330127e-001 -7.500000e-001 5.000000e-001
    endloop
  endfacet
  facet normal -8.684132e-001 -4.355568e-001 5.788273e-002
    outer loop
      vertex -9.254166e-001 -3.368241e-001 1.736482e-001
      vertex -9.254166e-001 -3.368241e-001 -1.736482e-001
      vertex -7.544065e-001 -6.330222e-001 1.736482e-001
    endloop
  endfacet
  facet normal -9.254166e-001 -1.122747e-001 -2.824321e-001
    outer loop
      vertex -9.848078e-001 1.206002e-016 -1.736482e-001
      vertex -8.660254e-001 -1.060540e-016 -5.000000e-001
      vertex -9.254166e-001 -3.368241e-001 -1.736482e-001
    endloop
  endfacet
  facet normal -7.612820e-001 1.720148e-001 -5.886815e-001
    outer loop
      vertex -8.137977e-001 2.961981e-001 -5.000000e-001
      vertex -6.040228e-001 2.198463e-001 -7.660444e-001
      vertex -8.660254e-001 -1.060540e-016 -5.000000e-001
    endloop
  endfacet
  facet normal -4.528098e-001 2.842895e-001 -8.239272e-001
    outer loop
      vertex -4.924039e-001 4.131759e-001 -7.660444e-001
      vertex -2.620026e-001 2.198463e-001 -9.396926e-001
      vertex -6.040228e-001 2.198463e-001 -7.660444e-001
    endloop
  endfacet
  facet normal -1.443376e-001 1.720148e-001 -9.597951e-001
    outer loop
      vertex -1.710101e-001 2.961981e-001 -9.396926e-001
      vertex -3.061516e-017 5.302701e-017 -1.000000e+000
      vertex -2.620026e-001 2.198463e-001 -9.396926e-001
    endloop
  endfacet
  facet normal -7.680042e-002 2.110074e-001 -9.597951e-001
    outer loop
      vertex -5.939117e-002 3.368241e-001 -9.396926e-001
      vertex -1.063253e-017 6.030009e-017 -1.000000e+000
      vertex -1.710101e-001 2.961981e-001 -9.396926e-001
    endloop
  endfacet
  facet normal -3.084722e-001 -3.097401e-001 8.818099e-001
    outer loop
      vertex -2.620026e-001 -2.198463e-001 9.396926e-001
      vertex -4.924039e-001 -4.131759e-001 7.660444e-001
      vertex -1.710101e-001 -2.961981e-001 9.396926e-001
    endloop
  endfacet
  facet normal -6.367414e-001 -3.097401e-001 6.773630e-001
    outer loop
      vertex -6.040228e-001 -2.198463e-001 7.660444e-001
      vertex -8.137977e-001 -2.961981e-001 5.000000e-001
      vertex -4.924039e-001 -4.131759e-001 7.660444e-001
    endloop
  endfacet
  facet normal -8.882103e-001 -9.873271e-002 3.912161e-001
    outer loop
      vertex -8.660254e-001 1.060540e-016 5.000000e-001
      vertex -9.848078e-001 -1.206002e-016 1.736482e-001
      vertex -8.137977e-001 -2.961981e-001 5.000000e-001
    endloop
  endfacet
  facet normal -9.452136e-001 2.245494e-001 5.788273e-002
    outer loop
      vertex -9.254166e-001 3.368241e-001 1.736482e-001
      vertex -9.254166e-001 3.368241e-001 -1.736482e-001
      vertex -9.848078e-001 -1.206002e-016 1.736482e-001
    endloop
  endfacet
  facet normal -7.810790e-001 5.088389e-001 -2.824321e-001
    outer loop
      vertex -7.544065e-001 6.330222e-001 -1.736482e-001
      vertex -6.634139e-001 5.566704e-001 -5.000000e-001
      vertex -9.254166e-001 3.368241e-001 -1.736482e-001
    endloop
  endfacet
  facet normal -4.726068e-001 6.211136e-001 -5.886815e-001
    outer loop
      vertex -4.330127e-001 7.500000e-001 -5.000000e-001
      vertex -3.213938e-001 5.566704e-001 -7.660444e-001
      vertex -6.634139e-001 5.566704e-001 -5.000000e-001
    endloop
  endfacet
  facet normal -1.641346e-001 5.088389e-001 -8.239272e-001
    outer loop
      vertex -1.116189e-001 6.330222e-001 -7.660444e-001
      vertex -5.939117e-002 3.368241e-001 -9.396926e-001
      vertex -3.213938e-001 5.566704e-001 -7.660444e-001
    endloop
  endfacet
  facet normal 2.081668e-017 2.245494e-001 -9.597951e-001
    outer loop
      vertex 5.939117e-002 3.368241e-001 -9.396926e-001
      vertex 1.063253e-017 6.030009e-017 -1.000000e+000
      vertex -5.939117e-002 3.368241e-001 -9.396926e-001
    endloop
  endfacet
  facet normal 7.680042e-002 2.110074e-001 -9.597951e-001
    outer loop
      vertex 1.710101e-001 2.961981e-001 -9.396926e-001
      vertex 3.061516e-017 5.302701e-017 -1.000000e+000
      vertex 5.939117e-002 3.368241e-001 -9.396926e-001
    endloop
  endfacet
  facet normal -2.211380e-001 3.899259e-002 9.597951e-001
    outer loop
      vertex -6.123032e-017 7.498304e-033 1.000000e+000
      vertex -3.213938e-001 1.169778e-001 9.396926e-001
      vertex -3.420201e-001 -4.188400e-017 9.396926e-001
    endloop
  endfacet
  facet normal -4.224789e-001 1.122747e-001 8.818099e-001
    outer loop
      vertex -3.213938e-001 1.169778e-001 9.396926e-001
      vertex -6.040228e-001 2.198463e-001 7.660444e-001
      vertex -3.420201e-001 -4.188400e-017 9.396926e-001
    endloop
  endfacet
  facet normal -5.866135e-001 3.965642e-001 6.773630e-001
    outer loop
      vertex -4.924039e-001 4.131759e-001 7.660444e-001
      vertex -6.634139e-001 5.566704e-001 5.000000e-001
      vertex -6.040228e-001 2.198463e-001 7.660444e-001
    endloop
  endfacet
  facet normal -5.296102e-001 7.198463e-001 3.912161e-001
    outer loop
      vertex -4.330127e-001 7.500000e-001 5.000000e-001
      vertex -4.924039e-001 8.528685e-001 1.736482e-001
      vertex -6.634139e-001 5.566704e-001 5.000000e-001
    endloop
  endfacet
  facet normal -2.781413e-001 9.308537e-001 5.788273e-002
    outer loop
      vertex -1.710101e-001 9.698463e-001 1.736482e-001
      vertex -1.710101e-001 9.698463e-001 -1.736482e-001
      vertex -4.924039e-001 8.528685e-001 1.736482e-001
    endloop
  endfacet
  facet normal 5.012791e-002 9.308537e-001 -2.824321e-001
    outer loop
      vertex 1.710101e-001 9.698463e-001 -1.736482e-001
      vertex 1.503837e-001 8.528685e-001 -5.000000e-001
      vertex -1.710101e-001 9.698463e-001 -1.736482e-001
    endloop
  endfacet
  facet normal 3.015967e-001 7.198463e-001 -5.886815e-001
    outer loop
      vertex 4.330127e-001 7.500000e-001 -5.000000e-001
      vertex 3.213938e-001 5.566704e-001 -7.660444e-001
      vertex 1.503837e-001 8.528685e-001 -5.000000e-001
    endloop
  endfacet
  facet normal 3.586001e-001 3.965642e-001 -8.239272e-001
    outer loop
      vertex 4.924039e-001 4.131759e-001 -7.660444e-001
      vertex 2.620026e-001 2.198463e-001 -9.396926e-001
      vertex 3.213938e-001 5.566704e-001 -7.660444e-001
    endloop
  endfacet
  facet normal 1.944655e-001 1.122747e-001 -9.597951e-001
    outer loop
      vertex 3.213938e-001 1.169778e-001 -9.396926e-001
      vertex 5.753768e-017 2.094200e-017 -1.000000e+000
      vertex 2.620026e-001 2.198463e-001 -9.396926e-001
    endloop
  endfacet
  facet normal -1.140067e-001 4.220148e-001 8.818099e-001
    outer loop
      vertex -5.939117e-002 3.368241e-001 9.396926e-001
      vertex -1.116189e-001 6.330222e-001 7.660444e-001
      vertex -1.710101e-001 2.961981e-001 9.396926e-001
    endloop
  endfacet
  facet normal 5.012791e-002 7.063043e-001 6.773630e-001
    outer loop
      vertex 1.116189e-001 6.330222e-001 7.660444e-001
      vertex 1.503837e-001 8.528685e-001 5.000000e-001
      vertex -1.116189e-001 6.330222e-001 7.660444e-001
    endloop
  endfacet
  facet normal 3.586001e-001 8.185790e-001 3.912161e-001
    outer loop
      vertex 4.330127e-001 7.500000e-001 5.000000e-001
      vertex 4.924039e-001 8.528685e-001 1.736482e-001
      vertex 1.503837e-001 8.528685e-001 5.000000e-001
    endloop
  endfacet
  facet normal 6.670723e-001 7.063043e-001 5.788273e-002
    outer loop
      vertex 7.544065e-001 6.330222e-001 1.736482e-001
      vertex 7.544065e-001 6.330222e-001 -1.736482e-001
      vertex 4.924039e-001 8.528685e-001 1.736482e-001
    endloop
  endfacet
  facet normal 8.312069e-001 4.220148e-001 -2.824321e-001
    outer loop
      vertex 9.254166e-001 3.368241e-001 -1.736482e-001
      vertex 8.137977e-001 2.961981e-001 -5.000000e-001
      vertex 7.544065e-001 6.330222e-001 -1.736482e-001
    endloop
  endfacet
  facet normal 7.742036e-001 9.873271e-002 -5.886815e-001
    outer loop
      vertex 8.660254e-001 0.000000e+000 -5.000000e-001
      vertex 6.427876e-001 0.000000e+000 -7.660444e-001
      vertex 8.137977e-001 2.961981e-001 -5.000000e-001
    endloop
  endfacet
  facet normal 5.227347e-001 -1.122747e-001 -8.239272e-001
    outer loop
      vertex 6.040228e-001 -2.198463e-001 -7.660444e-001
      vertex 3.213938e-001 -1.169778e-001 -9.396926e-001
      vertex 6.427876e-001 0.000000e+000 -7.660444e-001
    endloop
  endfacet
  facet normal 1.944655e-001 -1.122747e-001 -9.597951e-001
    outer loop
      vertex 2.620026e-001 -2.198463e-001 -9.396926e-001
      vertex 4.690514e-017 -3.935809e-017 -1.000000e+000
      vertex 3.213938e-001 -1.169778e-001 -9.396926e-001
    endloop
  endfacet
  facet normal 1.839317e-001 3.965642e-001 8.818099e-001
    outer loop
      vertex 1.710101e-001 2.961981e-001 9.396926e-001
      vertex 3.213938e-001 5.566704e-001 7.660444e-001
      vertex 5.939117e-002 3.368241e-001 9.396926e-001
    endloop
  endfacet
  facet normal 4.924039e-001 5.088389e-001 6.773630e-001
    outer loop
      vertex 4.924039e-001 4.131759e-001 7.660444e-001
      vertex 6.634139e-001 5.566704e-001 5.000000e-001
      vertex 3.213938e-001 5.566704e-001 7.660444e-001
    endloop
  endfacet
  facet normal 8.008761e-001 3.965642e-001 3.912161e-001
    outer loop
      vertex 8.137977e-001 2.961981e-001 5.000000e-001
      vertex 9.254166e-001 3.368241e-001 1.736482e-001
      vertex 6.634139e-001 5.566704e-001 5.000000e-001
    endloop
  endfacet
  facet normal 9.650107e-001 1.122747e-001 5.788273e-002
    outer loop
      vertex 9.848078e-001 0.000000e+000 1.736482e-001
      vertex 9.848078e-001 0.000000e+000 -1.736482e-001
      vertex 9.254166e-001 3.368241e-001 1.736482e-001
    endloop
  endfacet
  facet normal 9.080073e-001 -2.110074e-001 -2.824321e-001
    outer loop
      vertex 9.254166e-001 -3.368241e-001 -1.736482e-001
      vertex 8.137977e-001 -2.961981e-001 -5.000000e-001
      vertex 9.848078e-001 0.000000e+000 -1.736482e-001
    endloop
  endfacet
  facet normal 6.565385e-001 -4.220148e-001 -5.886815e-001
    outer loop
      vertex 6.634139e-001 -5.566704e-001 -5.000000e-001
      vertex 4.924039e-001 -4.131759e-001 -7.660444e-001
      vertex 8.137977e-001 -2.961981e-001 -5.000000e-001
    endloop
  endfacet
  facet normal 3.282693e-001 -4.220148e-001 -8.239272e-001
    outer loop
      vertex 3.213938e-001 -5.566704e-001 -7.660444e-001
      vertex 1.710101e-001 -2.961981e-001 -9.396926e-001
      vertex 4.924039e-001 -4.131759e-001 -7.660444e-001
    endloop
  endfacet
  facet normal 7.680042e-002 -2.110074e-001 -9.597951e-001
    outer loop
      vertex 5.939117e-002 -3.368241e-001 -9.396926e-001
      vertex 1.063253e-017 -6.030009e-017 -1.000000e+000
      vertex 1.710101e-001 -2.961981e-001 -9.396926e-001
    endloop
  endfacet
  facet normal 3.958064e-001 1.855568e-001 8.818099e-001
    outer loop
      vertex 3.213938e-001 1.169778e-001 9.396926e-001
      vertex 6.040228e-001 2.198463e-001 7.660444e-001
      vertex 2.620026e-001 2.198463e-001 9.396926e-001
    endloop
  endfacet
  facet normal 7.042786e-001 7.328210e-002 6.773630e-001
    outer loop
      vertex 6.427876e-001 0.000000e+000 7.660444e-001
      vertex 8.660254e-001 0.000000e+000 5.000000e-001
      vertex 6.040228e-001 2.198463e-001 7.660444e-001
    endloop
  endfacet
  facet normal 8.684132e-001 -2.110074e-001 3.912161e-001
    outer loop
      vertex 8.137977e-001 -2.961981e-001 5.000000e-001
      vertex 9.254166e-001 -3.368241e-001 1.736482e-001
      vertex 8.660254e-001 0.000000e+000 5.000000e-001
    endloop
  endfacet
  facet normal 8.114099e-001 -5.342895e-001 5.788273e-002
    outer loop
      vertex 7.544065e-001 -6.330222e-001 1.736482e-001
      vertex 7.544065e-001 -6.330222e-001 -1.736482e-001
      vertex 9.254166e-001 -3.368241e-001 1.736482e-001
    endloop
  endfacet
  facet normal 5.599410e-001 -7.452969e-001 -2.824321e-001
    outer loop
      vertex 4.924039e-001 -8.528685e-001 -1.736482e-001
      vertex 4.330127e-001 -7.500000e-001 -5.000000e-001
      vertex 7.544065e-001 -6.330222e-001 -1.736482e-001
    endloop
  endfacet
  facet normal 2.316718e-001 -7.452969e-001 -5.886815e-001
    outer loop
      vertex 1.503837e-001 -8.528685e-001 -5.000000e-001
      vertex 1.116189e-001 -6.330222e-001 -7.660444e-001
      vertex 4.330127e-001 -7.500000e-001 -5.000000e-001
    endloop
  endfacet
  facet normal -1.979706e-002 -5.342895e-001 -8.239272e-001
    outer loop
      vertex -1.116189e-001 -6.330222e-001 -7.660444e-001
      vertex -5.939117e-002 -3.368241e-001 -9.396926e-001
      vertex 1.116189e-001 -6.330222e-001 -7.660444e-001
    endloop
  endfacet
  facet normal -7.680042e-002 -2.110074e-001 -9.597951e-001
    outer loop
      vertex -1.710101e-001 -2.961981e-001 -9.396926e-001
      vertex -3.061516e-017 -5.302701e-017 -1.000000e+000
      vertex -5.939117e-002 -3.368241e-001 -9.396926e-001
    endloop
  endfacet
  facet normal 2.211380e-001 -3.899259e-002 9.597951e-001
    outer loop
      vertex 6.123032e-017 0.000000e+000 1.000000e+000
      vertex 3.213938e-001 -1.169778e-001 9.396926e-001
      vertex 3.420201e-001 0.000000e+000 9.396926e-001
    endloop
  endfacet
  facet normal 4.224789e-001 -1.122747e-001 8.818099e-001
    outer loop
      vertex 3.213938e-001 -1.169778e-001 9.396926e-001
      vertex 6.040228e-001 -2.198463e-001 7.660444e-001
      vertex 3.420201e-001 0.000000e+000 9.396926e-001
    endloop
  endfacet
  facet normal 5.866135e-001 -3.965642e-001 6.773630e-001
    outer loop
      vertex 4.924039e-001 -4.131759e-001 7.660444e-001
      vertex 6.634139e-001 -5.566704e-001 5.000000e-001
      vertex 6.040228e-001 -2.198463e-001 7.660444e-001
    endloop
  endfacet
  facet normal 5.296102e-001 -7.198463e-001 3.912161e-001
    outer loop
      vertex 4.330127e-001 -7.500000e-001 5.000000e-001
      vertex 4.924039e-001 -8.528685e-001 1.736482e-001
      vertex 6.634139e-001 -5.566704e-001 5.000000e-001
    endloop
  endfacet
  facet normal 2.781413e-001 -9.308537e-001 5.788273e-002
    outer loop
      vertex 1.710101e-001 -9.698463e-001 1.736482e-001
      vertex 1.710101e-001 -9.698463e-001 -1.736482e-001
      vertex 4.924039e-001 -8.528685e-001 1.736482e-001
    endloop
  endfacet
  facet normal -5.012791e-002 -9.308537e-001 -2.824321e-001
    outer loop
      vertex -1.710101e-001 -9.698463e-001 -1.736482e-001
      vertex -1.503837e-001 -8.528685e-001 -5.000000e-001
      vertex 1.710101e-001 -9.698463e-001 -1.736482e-001
    endloop
  endfacet
  facet normal -3.015967e-001 -7.198463e-001 -5.886815e-001
    outer loop
      vertex -4.330127e-001 -7.500000e-001 -5.000000e-001
      vertex -3.213938e-001 -5.566704e-001 -7.660444e-001
      vertex -1.503837e-001 -8.528685e-001 -5.000000e-001
    endloop
  endfacet
  facet normal -3.586001e-001 -3.965642e-001 -8.239272e-001
    outer loop
      vertex -4.924039e-001 -4.131759e-001 -7.660444e-001
      vertex -2.620026e-001 -2.198463e-001 -9.396926e-001
      vertex -3.213938e-001 -5.566704e-001 -7.660444e-001
    endloop
  endfacet
  facet normal -1.944655e-001 -1.122747e-001 -9.597951e-001
    outer loop
      vertex -3.213938e-001 -1.169778e-001 -9.396926e-001
      vertex -5.753768e-017 -2.094200e-017 -1.000000e+000
      vertex -2.620026e-001 -2.198463e-001 -9.396926e-001
    endloop
  endfacet
  facet normal 1.140067e-001 4.220148e-001 -8.818099e-001
    outer loop
      vertex 5.939117e-002 3.368241e-001 -9.396926e-001
      vertex 1.116189e-001 6.330222e-001 -7.660444e-001
      vertex 1.710101e-001 2.961981e-001 -9.396926e-001
    endloop
  endfacet
  facet normal -5.012791e-002 7.063043e-001 -6.773630e-001
    outer loop
      vertex -1.116189e-001 6.330222e-001 -7.660444e-001
      vertex -1.503837e-001 8.528685e-001 -5.000000e-001
      vertex 1.116189e-001 6.330222e-001 -7.660444e-001
    endloop
  endfacet
  facet normal -3.586001e-001 8.185790e-001 -3.912161e-001
    outer loop
      vertex -4.330127e-001 7.500000e-001 -5.000000e-001
      vertex -4.924039e-001 8.528685e-001 -1.736482e-001
      vertex -1.503837e-001 8.528685e-001 -5.000000e-001
    endloop
  endfacet
  facet normal -6.670723e-001 7.063043e-001 -5.788273e-002
    outer loop
      vertex -7.544065e-001 6.330222e-001 -1.736482e-001
      vertex -7.544065e-001 6.330222e-001 1.736482e-001
      vertex -4.924039e-001 8.528685e-001 -1.736482e-001
    endloop
  endfacet
  facet normal -8.312069e-001 4.220148e-001 2.824321e-001
    outer loop
      vertex -9.254166e-001 3.368241e-001 1.736482e-001
      vertex -8.137977e-001 2.961981e-001 5.000000e-001
      vertex -7.544065e-001 6.330222e-001 1.736482e-001
    endloop
  endfacet
  facet normal -7.742036e-001 9.873271e-002 5.886815e-001
    outer loop
      vertex -8.660254e-001 1.060540e-016 5.000000e-001
      vertex -6.427876e-001 -7.871618e-017 7.660444e-001
      vertex -8.137977e-001 2.961981e-001 5.000000e-001
    endloop
  endfacet
  facet normal -5.227347e-001 -1.122747e-001 8.239272e-001
    outer loop
      vertex -6.040228e-001 -2.198463e-001 7.660444e-001
      vertex -3.213938e-001 -1.169778e-001 9.396926e-001
      vertex -6.427876e-001 -7.871618e-017 7.660444e-001
    endloop
  endfacet
  facet normal -1.944655e-001 -1.122747e-001 9.597951e-001
    outer loop
      vertex -2.620026e-001 -2.198463e-001 9.396926e-001
      vertex -4.690514e-017 -3.935809e-017 1.000000e+000
      vertex -3.213938e-001 -1.169778e-001 9.396926e-001
    endloop
  endfacet
  facet normal -1.839317e-001 3.965642e-001 -8.818099e-001
    outer loop
      vertex -1.710101e-001 2.961981e-001 -9.396926e-001
      vertex -3.213938e-001 5.566704e-001 -7.660444e-001
      vertex -5.939117e-002 3.368241e-001 -9.396926e-001
    endloop
  endfacet
  facet normal -4.924039e-001 5.088389e-001 -6.773630e-001
    outer loop
      vertex -4.924039e-001 4.131759e-001 -7.660444e-001
      vertex -6.634139e-001 5.566704e-001 -5.000000e-001
      vertex -3.213938e-001 5.566704e-001 -7.660444e-001
    endloop
  endfacet
  facet normal -8.008761e-001 3.965642e-001 -3.912161e-001
    outer loop
      vertex -8.137977e-001 2.961981e-001 -5.000000e-001
      vertex -9.254166e-001 3.368241e-001 -1.736482e-001
      vertex -6.634139e-001 5.566704e-001 -5.000000e-001
    endloop
  endfacet
  facet normal -9.650107e-001 1.122747e-001 -5.788273e-002
    outer loop
      vertex -9.848078e-001 1.206002e-016 -1.736482e-001
      vertex -9.848078e-001 -1.206002e-016 1.736482e-001
      vertex -9.254166e-001 3.368241e-001 -1.736482e-001
    endloop
  endfacet
  facet normal -9.080073e-001 -2.110074e-001 2.824321e-001
    outer loop
      vertex -9.254166e-001 -3.368241e-001 1.736482e-001
      vertex -8.137977e-001 -2.961981e-001 5.000000e-001
      vertex -9.848078e-001 -1.206002e-016 1.736482e-001
    endloop
  endfacet
  facet normal -6.565385e-001 -4.220148e-001 5.886815e-001
    outer loop
      vertex -6.634139e-001 -5.566704e-001 5.000000e-001
      vertex -4.924039e-001 -4.131759e-001 7.660444e-001
      vertex -8.137977e-001 -2.961981e-001 5.000000e-001
    endloop
  endfacet
  facet normal -3.282693e-001 -4.220148e-001 8.239272e-001
    outer loop
      vertex -3.213938e-001 -5.566704e-001 7.660444e-001
      vertex -1.710101e-001 -2.961981e-001 9.396926e-001
      vertex -4.924039e-001 -4.131759e-001 7.660444e-001
    endloop
  endfacet
  facet normal -7.680042e-002 -2.110074e-001 9.597951e-001
    outer loop
      vertex -5.939117e-002 -3.368241e-001 9.396926e-001
      vertex -1.063253e-017 -6.030009e-017 1.000000e+000
      vertex -1.710101e-001 -2.961981e-001 9.396926e-001
    endloop
  endfacet
  facet normal -3.958064e-001 1.855568e-001 -8.818099e-001
    outer loop
      vertex -3.213938e-001 1.169778e-001 -9.396926e-001
      vertex -6.040228e-001 2.198463e-001 -7.660444e-001
      vertex -2.620026e-001 2.198463e-001 -9.396926e-001
    endloop
  endfacet
  facet normal -7.042786e-001 7.328210e-002 -6.773630e-001
    outer loop
      vertex -6.427876e-001 7.871618e-017 -7.660444e-001
      vertex -8.660254e-001 -1.060540e-016 -5.000000e-001
      vertex -6.040228e-001 2.198463e-001 -7.660444e-001
    endloop
  endfacet
  facet normal -8.684132e-001 -2.110074e-001 -3.912161e-001
    outer loop
      vertex -8.137977e-001 -2.961981e-001 -5.000000e-001
      vertex -9.254166e-001 -3.368241e-001 -1.736482e-001
      vertex -8.660254e-001 -1.060540e-016 -5.000000e-001
    endloop
  endfacet
  facet normal -8.114099e-001 -5.342895e-001 -5.788273e-002
    outer loop
      vertex -7.544065e-001 -6.330222e-001 -1.736482e-001
      vertex -7.544065e-001 -6.330222e-001 1.736482e-001
      vertex -9.254166e-001 -3.368241e-001 -1.736482e-001
    endloop
  endfacet
  facet normal -5.599410e-001 -7.452969e-001 2.824321e-001
    outer loop
      vertex -4.924039e-001 -8.528685e-001 1.736482e-001
      vertex -4.330127e-001 -7.500000e-001 5.000000e-001
      vertex -7.544065e-001 -6.330222e-001 1.736482e-001
    endloop
  endfacet
  facet normal -2.316718e-001 -7.452969e-001 5.886815e-001
    outer loop
      vertex -1.503837e-001 -8.528685e-001 5.000000e-001
      vertex -1.116189e-001 -6.330222e-001 7.660444e-001
      vertex -4.330127e-001 -7.500000e-001 5.000000e-001
    endloop
  endfacet
  facet normal 1.979706e-002 -5.342895e-001 8.239272e-001
    outer loop
      vertex 1.116189e-001 -6.330222e-001 7.660444e-001
      vertex 5.939117e-002 -3.368241e-001 9.396926e-001
      vertex -1.116189e-001 -6.330222e-001 7.660444e-001
    endloop
  endfacet
  facet normal 7.680042e-002 -2.110074e-001 9.597951e-001
    outer loop
      vertex 1.710101e-001 -2.961981e-001 9.396926e-001
      vertex 3.061516e-017 -5.302701e-017 1.000000e+000
      vertex 5.939117e-002 -3.368241e-001 9.396926e-001
    endloop
  endfacet
  facet normal -2.211380e-001 -3.899259e-002 -9.597951e-001
    outer loop
      vertex -6.123032e-017 -7.498304e-033 -1.000000e+000
      vertex -3.213938e-001 -1.169778e-001 -9.396926e-001
      vertex -3.420201e-001 4.188400e-017 -9.396926e-001
    endloop
  endfacet
  facet normal -4.224789e-001 -1.122747e-001 -8.818099e-001
    outer loop
      vertex -3.213938e-001 -1.169778e-001 -9.396926e-001
      vertex -6.040228e-001 -2.198463e-001 -7.660444e-001
      vertex -3.420201e-001 4.188400e-017 -9.396926e-001
    endloop
  endfacet
  facet normal -5.866135e-001 -3.965642e-001 -6.773630e-001
    outer loop
      vertex -4.924039e-001 -4.131759e-001 -7.660444e-001
      vertex -6.634139e-001 -5.566704e-001 -5.000000e-001
      vertex -6.040228e-001 -2.198463e-001 -7.660444e-001
    endloop
  endfacet
  facet normal -5.296102e-001 -7.198463e-001 -3.912161e-001
    outer loop
      vertex -4.330127e-001 -7.500000e-001 -5.000000e-001
      vertex -4.924039e-001 -8.528685e-001 -1.736482e-001
      vertex -6.634139e-001 -5.566704e-001 -5.000000e-001
    endloop
  endfacet
  facet normal -2.781413e-001 -9.308537e-001 -5.788273e-002
    outer loop
      vertex -1.710101e-001 -9.698463e-001 -1.736482e-001
      vertex -1.710101e-001 -9.698463e-001 1.736482e-001
      vertex -4.924039e-001 -8.528685e-001 -1.736482e-001
    endloop
  endfacet
  facet normal 5.012791e-002 -9.308537e-001 2.824321e-001
    outer loop
      vertex 1.710101e-001 -9.698463e-001 1.736482e-001
      vertex 1.503837e-001 -8.528685e-001 5.000000e-001
      vertex -1.710101e-001 -9.698463e-001 1.736482e-001
    endloop
  endfacet
  facet normal 3.015967e-001 -7.198463e-001 5.886815e-001
    outer loop
      vertex 4.330127e-001 -7.500000e-001 5.000000e-001
      vertex 3.213938e-001 -5.566704e-001 7.660444e-001
      vertex 1.503837e-001 -8.528685e-001 5.000000e-001
    endloop
  endfacet
  facet normal 3.586001e-001 -3.965642e-001 8.239272e-001
    outer loop
      vertex 4.924039e-001 -4.131759e-001 7.660444e-001
      vertex 2.620026e-001 -2.198463e-001 9.396926e-001
      vertex 3.213938e-001 -5.566704e-001 7.660444e-001
    endloop
  endfacet
  facet normal 1.944655e-001 -1.122747e-001 9.597951e-001
    outer loop
      vertex 3.213938e-001 -1.169778e-001 9.396926e-001
      vertex 5.753768e-017 -2.094200e-017 1.000000e+000
      vertex 2.620026e-001 -2.198463e-001 9.396926e-001
    endloop
  endfacet
endsolid default:solid1
