solid Metal:Line
  facet normal 1.000000e+000 0.000000e+000 0.000000e+000
    outer loop
      vertex 2.667000e-003 0.000000e+000 6.065266e-003
      vertex 2.667000e-003 2.997200e-006 6.065266e-003
      vertex 2.667000e-003 0.000000e+000 7.620000e-003
    endloop
  endfacet
  facet normal 1.000000e+000 0.000000e+000 0.000000e+000
    outer loop
      vertex 2.667000e-003 0.000000e+000 7.620000e-003
      vertex 2.667000e-003 2.997200e-006 6.065266e-003
      vertex 2.667000e-003 2.997200e-006 7.620000e-003
    endloop
  endfacet
  facet normal 0.000000e+000 0.000000e+000 -1.000000e+000
    outer loop
      vertex 2.667000e-003 2.997200e-006 0.000000e+000
      vertex 2.667000e-003 0.000000e+000 0.000000e+000
      vertex 2.032000e-003 2.997200e-006 0.000000e+000
    endloop
  endfacet
  facet normal 0.000000e+000 0.000000e+000 -1.000000e+000
    outer loop
      vertex 2.032000e-003 2.997200e-006 0.000000e+000
      vertex 2.667000e-003 0.000000e+000 0.000000e+000
      vertex 2.032000e-003 0.000000e+000 0.000000e+000
    endloop
  endfacet
  facet normal -1.000000e+000 0.000000e+000 0.000000e+000
    outer loop
      vertex 2.032000e-003 0.000000e+000 1.554734e-003
      vertex 2.032000e-003 2.997200e-006 1.554734e-003
      vertex 2.032000e-003 0.000000e+000 0.000000e+000
    endloop
  endfacet
  facet normal -1.000000e+000 0.000000e+000 0.000000e+000
    outer loop
      vertex 2.032000e-003 0.000000e+000 0.000000e+000
      vertex 2.032000e-003 2.997200e-006 1.554734e-003
      vertex 2.032000e-003 2.997200e-006 0.000000e+000
    endloop
  endfacet
  facet normal 0.000000e+000 0.000000e+000 1.000000e+000
    outer loop
      vertex 2.032000e-003 2.997200e-006 7.620000e-003
      vertex 2.032000e-003 0.000000e+000 7.620000e-003
      vertex 2.667000e-003 2.997200e-006 7.620000e-003
    endloop
  endfacet
  facet normal 0.000000e+000 0.000000e+000 1.000000e+000
    outer loop
      vertex 2.667000e-003 2.997200e-006 7.620000e-003
      vertex 2.032000e-003 0.000000e+000 7.620000e-003
      vertex 2.667000e-003 0.000000e+000 7.620000e-003
    endloop
  endfacet
  facet normal 1.000000e+000 0.000000e+000 0.000000e+000
    outer loop
      vertex 2.667000e-003 2.997200e-006 1.554734e-003
      vertex 2.667000e-003 0.000000e+000 1.554734e-003
      vertex 2.667000e-003 2.997200e-006 0.000000e+000
    endloop
  endfacet
  facet normal 1.000000e+000 0.000000e+000 0.000000e+000
    outer loop
      vertex 2.667000e-003 2.997200e-006 0.000000e+000
      vertex 2.667000e-003 0.000000e+000 1.554734e-003
      vertex 2.667000e-003 0.000000e+000 0.000000e+000
    endloop
  endfacet
  facet normal -1.000000e+000 0.000000e+000 0.000000e+000
    outer loop
      vertex 2.032000e-003 2.997200e-006 6.065266e-003
      vertex 2.032000e-003 0.000000e+000 6.065266e-003
      vertex 2.032000e-003 2.997200e-006 7.620000e-003
    endloop
  endfacet
  facet normal -1.000000e+000 0.000000e+000 0.000000e+000
    outer loop
      vertex 2.032000e-003 2.997200e-006 7.620000e-003
      vertex 2.032000e-003 0.000000e+000 6.065266e-003
      vertex 2.032000e-003 0.000000e+000 7.620000e-003
    endloop
  endfacet
  facet normal -1.000000e+000 0.000000e+000 0.000000e+000
    outer loop
      vertex 1.785493e-003 0.000000e+000 3.747770e-003
      vertex 1.785493e-003 2.997200e-006 3.747770e-003
      vertex 1.785493e-003 0.000000e+000 1.554734e-003
    endloop
  endfacet
  facet normal -1.000000e+000 0.000000e+000 0.000000e+000
    outer loop
      vertex 1.785493e-003 0.000000e+000 1.554734e-003
      vertex 1.785493e-003 2.997200e-006 3.747770e-003
      vertex 1.785493e-003 2.997200e-006 1.554734e-003
    endloop
  endfacet
  facet normal 0.000000e+000 0.000000e+000 1.000000e+000
    outer loop
      vertex 2.032000e-003 0.000000e+000 6.065266e-003
      vertex 2.032000e-003 2.997200e-006 6.065266e-003
      vertex 1.785493e-003 0.000000e+000 6.065266e-003
    endloop
  endfacet
  facet normal 0.000000e+000 0.000000e+000 1.000000e+000
    outer loop
      vertex 1.785493e-003 0.000000e+000 6.065266e-003
      vertex 2.032000e-003 2.997200e-006 6.065266e-003
      vertex 1.785493e-003 2.997200e-006 6.065266e-003
    endloop
  endfacet
  facet normal 0.000000e+000 0.000000e+000 -1.000000e+000
    outer loop
      vertex 2.032000e-003 2.997200e-006 1.554734e-003
      vertex 2.032000e-003 0.000000e+000 1.554734e-003
      vertex 1.785493e-003 2.997200e-006 1.554734e-003
    endloop
  endfacet
  facet normal 0.000000e+000 0.000000e+000 -1.000000e+000
    outer loop
      vertex 1.785493e-003 2.997200e-006 1.554734e-003
      vertex 2.032000e-003 0.000000e+000 1.554734e-003
      vertex 1.785493e-003 0.000000e+000 1.554734e-003
    endloop
  endfacet
  facet normal 0.000000e+000 0.000000e+000 -1.000000e+000
    outer loop
      vertex 2.667000e-003 0.000000e+000 1.554734e-003
      vertex 2.667000e-003 2.997200e-006 1.554734e-003
      vertex 2.913507e-003 0.000000e+000 1.554734e-003
    endloop
  endfacet
  facet normal 0.000000e+000 0.000000e+000 -1.000000e+000
    outer loop
      vertex 2.913507e-003 0.000000e+000 1.554734e-003
      vertex 2.667000e-003 2.997200e-006 1.554734e-003
      vertex 2.913507e-003 2.997200e-006 1.554734e-003
    endloop
  endfacet
  facet normal 0.000000e+000 0.000000e+000 1.000000e+000
    outer loop
      vertex 2.667000e-003 2.997200e-006 6.065266e-003
      vertex 2.667000e-003 0.000000e+000 6.065266e-003
      vertex 2.913507e-003 2.997200e-006 6.065266e-003
    endloop
  endfacet
  facet normal 0.000000e+000 0.000000e+000 1.000000e+000
    outer loop
      vertex 2.913507e-003 2.997200e-006 6.065266e-003
      vertex 2.667000e-003 0.000000e+000 6.065266e-003
      vertex 2.913507e-003 0.000000e+000 6.065266e-003
    endloop
  endfacet
  facet normal 1.000000e+000 0.000000e+000 0.000000e+000
    outer loop
      vertex 2.913507e-003 2.997200e-006 3.747770e-003
      vertex 2.913507e-003 0.000000e+000 3.747770e-003
      vertex 2.913507e-003 2.997200e-006 1.554734e-003
    endloop
  endfacet
  facet normal 1.000000e+000 0.000000e+000 0.000000e+000
    outer loop
      vertex 2.913507e-003 2.997200e-006 1.554734e-003
      vertex 2.913507e-003 0.000000e+000 3.747770e-003
      vertex 2.913507e-003 0.000000e+000 1.554734e-003
    endloop
  endfacet
  facet normal 1.000000e+000 0.000000e+000 0.000000e+000
    outer loop
      vertex 2.913507e-003 0.000000e+000 3.872230e-003
      vertex 2.913507e-003 2.997200e-006 3.872230e-003
      vertex 2.913507e-003 0.000000e+000 6.065266e-003
    endloop
  endfacet
  facet normal 1.000000e+000 0.000000e+000 0.000000e+000
    outer loop
      vertex 2.913507e-003 0.000000e+000 6.065266e-003
      vertex 2.913507e-003 2.997200e-006 3.872230e-003
      vertex 2.913507e-003 2.997200e-006 6.065266e-003
    endloop
  endfacet
  facet normal 0.000000e+000 -1.000000e+000 0.000000e+000
    outer loop
      vertex 4.566012e-003 0.000000e+000 3.744260e-003
      vertex 4.701667e-003 0.000000e+000 3.429000e-003
      vertex 4.574667e-003 0.000000e+000 3.810000e-003
    endloop
  endfacet
  facet normal 0.000000e+000 -1.000000e+000 0.000000e+000
    outer loop
      vertex 4.566012e-003 0.000000e+000 3.744260e-003
      vertex 4.540637e-003 0.000000e+000 3.683000e-003
      vertex 4.701667e-003 0.000000e+000 3.429000e-003
    endloop
  endfacet
  facet normal 0.000000e+000 -1.000000e+000 0.000000e+000
    outer loop
      vertex 4.701667e-003 0.000000e+000 3.429000e-003
      vertex 4.540637e-003 0.000000e+000 3.683000e-003
      vertex 4.500272e-003 0.000000e+000 3.630395e-003
    endloop
  endfacet
  facet normal 0.000000e+000 -1.000000e+000 0.000000e+000
    outer loop
      vertex 4.447667e-003 0.000000e+000 3.590030e-003
      vertex 4.701667e-003 0.000000e+000 3.429000e-003
      vertex 4.500272e-003 0.000000e+000 3.630395e-003
    endloop
  endfacet
  facet normal 0.000000e+000 -1.000000e+000 0.000000e+000
    outer loop
      vertex 4.447667e-003 0.000000e+000 3.590030e-003
      vertex 4.386407e-003 0.000000e+000 3.564655e-003
      vertex 4.701667e-003 0.000000e+000 3.429000e-003
    endloop
  endfacet
  facet normal 0.000000e+000 -1.000000e+000 0.000000e+000
    outer loop
      vertex 4.701667e-003 0.000000e+000 3.429000e-003
      vertex 4.386407e-003 0.000000e+000 3.564655e-003
      vertex 4.320667e-003 0.000000e+000 3.556000e-003
    endloop
  endfacet
  facet normal 0.000000e+000 -1.000000e+000 0.000000e+000
    outer loop
      vertex 3.939667e-003 0.000000e+000 3.429000e-003
      vertex 4.320667e-003 0.000000e+000 3.556000e-003
      vertex 4.254927e-003 0.000000e+000 3.564655e-003
    endloop
  endfacet
  facet normal 0.000000e+000 -1.000000e+000 0.000000e+000
    outer loop
      vertex 4.193667e-003 0.000000e+000 3.590030e-003
      vertex 3.939667e-003 0.000000e+000 3.429000e-003
      vertex 4.254927e-003 0.000000e+000 3.564655e-003
    endloop
  endfacet
  facet normal 0.000000e+000 -1.000000e+000 0.000000e+000
    outer loop
      vertex 4.193667e-003 0.000000e+000 3.590030e-003
      vertex 4.141062e-003 0.000000e+000 3.630395e-003
      vertex 3.939667e-003 0.000000e+000 3.429000e-003
    endloop
  endfacet
  facet normal 0.000000e+000 -1.000000e+000 0.000000e+000
    outer loop
      vertex 3.939667e-003 0.000000e+000 3.429000e-003
      vertex 4.141062e-003 0.000000e+000 3.630395e-003
      vertex 4.100697e-003 0.000000e+000 3.683000e-003
    endloop
  endfacet
  facet normal 0.000000e+000 -1.000000e+000 0.000000e+000
    outer loop
      vertex 4.075322e-003 0.000000e+000 3.744260e-003
      vertex 3.939667e-003 0.000000e+000 3.429000e-003
      vertex 4.100697e-003 0.000000e+000 3.683000e-003
    endloop
  endfacet
  facet normal 0.000000e+000 -1.000000e+000 0.000000e+000
    outer loop
      vertex 4.075322e-003 0.000000e+000 3.744260e-003
      vertex 3.939667e-003 0.000000e+000 3.747770e-003
      vertex 3.939667e-003 0.000000e+000 3.429000e-003
    endloop
  endfacet
  facet normal 0.000000e+000 -1.000000e+000 0.000000e+000
    outer loop
      vertex 4.075322e-003 0.000000e+000 3.744260e-003
      vertex 4.066667e-003 0.000000e+000 3.810000e-003
      vertex 3.939667e-003 0.000000e+000 3.747770e-003
    endloop
  endfacet
  facet normal 0.000000e+000 -1.000000e+000 0.000000e+000
    outer loop
      vertex 3.939667e-003 0.000000e+000 3.747770e-003
      vertex 4.066667e-003 0.000000e+000 3.810000e-003
      vertex 3.939667e-003 0.000000e+000 3.872230e-003
    endloop
  endfacet
  facet normal 0.000000e+000 -1.000000e+000 0.000000e+000
    outer loop
      vertex 2.913507e-003 0.000000e+000 3.872230e-003
      vertex 3.939667e-003 0.000000e+000 3.747770e-003
      vertex 3.939667e-003 0.000000e+000 3.872230e-003
    endloop
  endfacet
  facet normal 0.000000e+000 -1.000000e+000 0.000000e+000
    outer loop
      vertex 2.913507e-003 0.000000e+000 3.872230e-003
      vertex 2.913507e-003 0.000000e+000 3.747770e-003
      vertex 3.939667e-003 0.000000e+000 3.747770e-003
    endloop
  endfacet
  facet normal 0.000000e+000 -1.000000e+000 0.000000e+000
    outer loop
      vertex 2.913507e-003 0.000000e+000 3.872230e-003
      vertex 1.785493e-003 0.000000e+000 3.872230e-003
      vertex 2.913507e-003 0.000000e+000 3.747770e-003
    endloop
  endfacet
  facet normal 0.000000e+000 -1.000000e+000 0.000000e+000
    outer loop
      vertex 2.913507e-003 0.000000e+000 3.872230e-003
      vertex 2.667000e-003 0.000000e+000 6.065266e-003
      vertex 1.785493e-003 0.000000e+000 3.872230e-003
    endloop
  endfacet
  facet normal 0.000000e+000 -1.000000e+000 0.000000e+000
    outer loop
      vertex 2.913507e-003 0.000000e+000 3.872230e-003
      vertex 2.913507e-003 0.000000e+000 6.065266e-003
      vertex 2.667000e-003 0.000000e+000 6.065266e-003
    endloop
  endfacet
  facet normal 0.000000e+000 -1.000000e+000 0.000000e+000
    outer loop
      vertex 4.701667e-003 0.000000e+000 3.429000e-003
      vertex 4.320667e-003 0.000000e+000 3.556000e-003
      vertex 3.939667e-003 0.000000e+000 3.429000e-003
    endloop
  endfacet
  facet normal 0.000000e+000 -1.000000e+000 0.000000e+000
    outer loop
      vertex 4.066667e-003 0.000000e+000 3.810000e-003
      vertex 4.075322e-003 0.000000e+000 3.875740e-003
      vertex 3.939667e-003 0.000000e+000 3.872230e-003
    endloop
  endfacet
  facet normal 0.000000e+000 -1.000000e+000 0.000000e+000
    outer loop
      vertex 3.939667e-003 0.000000e+000 3.872230e-003
      vertex 4.075322e-003 0.000000e+000 3.875740e-003
      vertex 3.939667e-003 0.000000e+000 4.191000e-003
    endloop
  endfacet
  facet normal 0.000000e+000 -1.000000e+000 0.000000e+000
    outer loop
      vertex 3.939667e-003 0.000000e+000 4.191000e-003
      vertex 4.075322e-003 0.000000e+000 3.875740e-003
      vertex 4.100697e-003 0.000000e+000 3.937000e-003
    endloop
  endfacet
  facet normal 0.000000e+000 -1.000000e+000 0.000000e+000
    outer loop
      vertex 4.141062e-003 0.000000e+000 3.989605e-003
      vertex 3.939667e-003 0.000000e+000 4.191000e-003
      vertex 4.100697e-003 0.000000e+000 3.937000e-003
    endloop
  endfacet
  facet normal 0.000000e+000 -1.000000e+000 0.000000e+000
    outer loop
      vertex 4.141062e-003 0.000000e+000 3.989605e-003
      vertex 4.193667e-003 0.000000e+000 4.029970e-003
      vertex 3.939667e-003 0.000000e+000 4.191000e-003
    endloop
  endfacet
  facet normal 0.000000e+000 -1.000000e+000 0.000000e+000
    outer loop
      vertex 3.939667e-003 0.000000e+000 4.191000e-003
      vertex 4.193667e-003 0.000000e+000 4.029970e-003
      vertex 4.254927e-003 0.000000e+000 4.055345e-003
    endloop
  endfacet
  facet normal 0.000000e+000 -1.000000e+000 0.000000e+000
    outer loop
      vertex 4.320667e-003 0.000000e+000 4.064000e-003
      vertex 3.939667e-003 0.000000e+000 4.191000e-003
      vertex 4.254927e-003 0.000000e+000 4.055345e-003
    endloop
  endfacet
  facet normal 0.000000e+000 -1.000000e+000 0.000000e+000
    outer loop
      vertex 4.320667e-003 0.000000e+000 4.064000e-003
      vertex 4.701667e-003 0.000000e+000 4.191000e-003
      vertex 3.939667e-003 0.000000e+000 4.191000e-003
    endloop
  endfacet
  facet normal 0.000000e+000 -1.000000e+000 0.000000e+000
    outer loop
      vertex 4.320667e-003 0.000000e+000 4.064000e-003
      vertex 4.386407e-003 0.000000e+000 4.055345e-003
      vertex 4.701667e-003 0.000000e+000 4.191000e-003
    endloop
  endfacet
  facet normal 0.000000e+000 -1.000000e+000 0.000000e+000
    outer loop
      vertex 4.701667e-003 0.000000e+000 4.191000e-003
      vertex 4.386407e-003 0.000000e+000 4.055345e-003
      vertex 4.447667e-003 0.000000e+000 4.029970e-003
    endloop
  endfacet
  facet normal 0.000000e+000 -1.000000e+000 0.000000e+000
    outer loop
      vertex 4.500272e-003 0.000000e+000 3.989605e-003
      vertex 4.701667e-003 0.000000e+000 4.191000e-003
      vertex 4.447667e-003 0.000000e+000 4.029970e-003
    endloop
  endfacet
  facet normal 0.000000e+000 -1.000000e+000 0.000000e+000
    outer loop
      vertex 4.500272e-003 0.000000e+000 3.989605e-003
      vertex 4.540637e-003 0.000000e+000 3.937000e-003
      vertex 4.701667e-003 0.000000e+000 4.191000e-003
    endloop
  endfacet
  facet normal 0.000000e+000 -1.000000e+000 0.000000e+000
    outer loop
      vertex 4.701667e-003 0.000000e+000 4.191000e-003
      vertex 4.540637e-003 0.000000e+000 3.937000e-003
      vertex 4.566012e-003 0.000000e+000 3.875740e-003
    endloop
  endfacet
  facet normal 0.000000e+000 -1.000000e+000 0.000000e+000
    outer loop
      vertex 4.574667e-003 0.000000e+000 3.810000e-003
      vertex 4.701667e-003 0.000000e+000 4.191000e-003
      vertex 4.566012e-003 0.000000e+000 3.875740e-003
    endloop
  endfacet
  facet normal 0.000000e+000 -1.000000e+000 0.000000e+000
    outer loop
      vertex 4.574667e-003 0.000000e+000 3.810000e-003
      vertex 4.701667e-003 0.000000e+000 3.429000e-003
      vertex 4.701667e-003 0.000000e+000 4.191000e-003
    endloop
  endfacet
  facet normal 0.000000e+000 -1.000000e+000 0.000000e+000
    outer loop
      vertex 2.667000e-003 0.000000e+000 7.620000e-003
      vertex 2.032000e-003 0.000000e+000 7.620000e-003
      vertex 2.667000e-003 0.000000e+000 6.065266e-003
    endloop
  endfacet
  facet normal 0.000000e+000 -1.000000e+000 0.000000e+000
    outer loop
      vertex 2.667000e-003 0.000000e+000 6.065266e-003
      vertex 2.032000e-003 0.000000e+000 7.620000e-003
      vertex 2.032000e-003 0.000000e+000 6.065266e-003
    endloop
  endfacet
  facet normal 0.000000e+000 -1.000000e+000 0.000000e+000
    outer loop
      vertex 1.785493e-003 0.000000e+000 3.872230e-003
      vertex 2.032000e-003 0.000000e+000 6.065266e-003
      vertex 1.785493e-003 0.000000e+000 6.065266e-003
    endloop
  endfacet
  facet normal 0.000000e+000 -1.000000e+000 0.000000e+000
    outer loop
      vertex 1.785493e-003 0.000000e+000 3.872230e-003
      vertex 2.667000e-003 0.000000e+000 6.065266e-003
      vertex 2.032000e-003 0.000000e+000 6.065266e-003
    endloop
  endfacet
  facet normal 0.000000e+000 -1.000000e+000 0.000000e+000
    outer loop
      vertex 2.913507e-003 0.000000e+000 3.747770e-003
      vertex 1.785493e-003 0.000000e+000 3.872230e-003
      vertex 1.785493e-003 0.000000e+000 3.747770e-003
    endloop
  endfacet
  facet normal 0.000000e+000 -1.000000e+000 0.000000e+000
    outer loop
      vertex 2.667000e-003 0.000000e+000 1.554734e-003
      vertex 1.785493e-003 0.000000e+000 3.747770e-003
      vertex 2.032000e-003 0.000000e+000 1.554734e-003
    endloop
  endfacet
  facet normal 0.000000e+000 -1.000000e+000 0.000000e+000
    outer loop
      vertex 2.667000e-003 0.000000e+000 0.000000e+000
      vertex 2.032000e-003 0.000000e+000 1.554734e-003
      vertex 2.032000e-003 0.000000e+000 0.000000e+000
    endloop
  endfacet
  facet normal 0.000000e+000 -1.000000e+000 0.000000e+000
    outer loop
      vertex 2.667000e-003 0.000000e+000 0.000000e+000
      vertex 2.667000e-003 0.000000e+000 1.554734e-003
      vertex 2.032000e-003 0.000000e+000 1.554734e-003
    endloop
  endfacet
  facet normal 0.000000e+000 -1.000000e+000 0.000000e+000
    outer loop
      vertex 6.506210e-004 0.000000e+000 3.747770e-003
      vertex 1.785493e-003 0.000000e+000 3.747770e-003
      vertex 6.506210e-004 0.000000e+000 3.872230e-003
    endloop
  endfacet
  facet normal 0.000000e+000 -1.000000e+000 0.000000e+000
    outer loop
      vertex 6.506210e-004 0.000000e+000 3.872230e-003
      vertex 1.785493e-003 0.000000e+000 3.747770e-003
      vertex 1.785493e-003 0.000000e+000 3.872230e-003
    endloop
  endfacet
  facet normal 0.000000e+000 -1.000000e+000 0.000000e+000
    outer loop
      vertex 1.785493e-003 0.000000e+000 3.747770e-003
      vertex 1.785493e-003 0.000000e+000 1.554734e-003
      vertex 2.032000e-003 0.000000e+000 1.554734e-003
    endloop
  endfacet
  facet normal 0.000000e+000 -1.000000e+000 0.000000e+000
    outer loop
      vertex 2.913507e-003 0.000000e+000 1.554734e-003
      vertex 2.913507e-003 0.000000e+000 3.747770e-003
      vertex 2.667000e-003 0.000000e+000 1.554734e-003
    endloop
  endfacet
  facet normal 0.000000e+000 -1.000000e+000 0.000000e+000
    outer loop
      vertex 2.667000e-003 0.000000e+000 1.554734e-003
      vertex 2.913507e-003 0.000000e+000 3.747770e-003
      vertex 1.785493e-003 0.000000e+000 3.747770e-003
    endloop
  endfacet
  facet normal -1.000000e+000 0.000000e+000 0.000000e+000
    outer loop
      vertex 1.785493e-003 2.997200e-006 3.872230e-003
      vertex 1.785493e-003 0.000000e+000 3.872230e-003
      vertex 1.785493e-003 2.997200e-006 6.065266e-003
    endloop
  endfacet
  facet normal -1.000000e+000 0.000000e+000 0.000000e+000
    outer loop
      vertex 1.785493e-003 2.997200e-006 6.065266e-003
      vertex 1.785493e-003 0.000000e+000 3.872230e-003
      vertex 1.785493e-003 0.000000e+000 6.065266e-003
    endloop
  endfacet
  facet normal -1.000000e+000 0.000000e+000 0.000000e+000
    outer loop
      vertex 6.506210e-004 2.997200e-006 3.747770e-003
      vertex 6.506210e-004 0.000000e+000 3.747770e-003
      vertex 6.506210e-004 2.997200e-006 3.872230e-003
    endloop
  endfacet
  facet normal -1.000000e+000 0.000000e+000 0.000000e+000
    outer loop
      vertex 6.506210e-004 2.997200e-006 3.872230e-003
      vertex 6.506210e-004 0.000000e+000 3.747770e-003
      vertex 6.506210e-004 0.000000e+000 3.872230e-003
    endloop
  endfacet
  facet normal 0.000000e+000 0.000000e+000 1.000000e+000
    outer loop
      vertex 1.785493e-003 0.000000e+000 3.872230e-003
      vertex 1.785493e-003 2.997200e-006 3.872230e-003
      vertex 6.506210e-004 0.000000e+000 3.872230e-003
    endloop
  endfacet
  facet normal 0.000000e+000 0.000000e+000 1.000000e+000
    outer loop
      vertex 6.506210e-004 0.000000e+000 3.872230e-003
      vertex 1.785493e-003 2.997200e-006 3.872230e-003
      vertex 6.506210e-004 2.997200e-006 3.872230e-003
    endloop
  endfacet
  facet normal 0.000000e+000 0.000000e+000 1.000000e+000
    outer loop
      vertex 2.913507e-003 2.997200e-006 3.872230e-003
      vertex 2.913507e-003 0.000000e+000 3.872230e-003
      vertex 3.939667e-003 2.997200e-006 3.872230e-003
    endloop
  endfacet
  facet normal 0.000000e+000 0.000000e+000 1.000000e+000
    outer loop
      vertex 3.939667e-003 2.997200e-006 3.872230e-003
      vertex 2.913507e-003 0.000000e+000 3.872230e-003
      vertex 3.939667e-003 0.000000e+000 3.872230e-003
    endloop
  endfacet
  facet normal 0.000000e+000 0.000000e+000 -1.000000e+000
    outer loop
      vertex 1.785493e-003 2.997200e-006 3.747770e-003
      vertex 1.785493e-003 0.000000e+000 3.747770e-003
      vertex 6.506210e-004 2.997200e-006 3.747770e-003
    endloop
  endfacet
  facet normal 0.000000e+000 0.000000e+000 -1.000000e+000
    outer loop
      vertex 6.506210e-004 2.997200e-006 3.747770e-003
      vertex 1.785493e-003 0.000000e+000 3.747770e-003
      vertex 6.506210e-004 0.000000e+000 3.747770e-003
    endloop
  endfacet
  facet normal 0.000000e+000 0.000000e+000 -1.000000e+000
    outer loop
      vertex 2.913507e-003 0.000000e+000 3.747770e-003
      vertex 2.913507e-003 2.997200e-006 3.747770e-003
      vertex 3.939667e-003 0.000000e+000 3.747770e-003
    endloop
  endfacet
  facet normal 0.000000e+000 0.000000e+000 -1.000000e+000
    outer loop
      vertex 3.939667e-003 0.000000e+000 3.747770e-003
      vertex 2.913507e-003 2.997200e-006 3.747770e-003
      vertex 3.939667e-003 2.997200e-006 3.747770e-003
    endloop
  endfacet
  facet normal 1.000000e+000 0.000000e+000 0.000000e+000
    outer loop
      vertex 4.701667e-003 2.997200e-006 4.191000e-003
      vertex 4.701667e-003 0.000000e+000 4.191000e-003
      vertex 4.701667e-003 2.997200e-006 3.429000e-003
    endloop
  endfacet
  facet normal 1.000000e+000 0.000000e+000 0.000000e+000
    outer loop
      vertex 4.701667e-003 2.997200e-006 3.429000e-003
      vertex 4.701667e-003 0.000000e+000 4.191000e-003
      vertex 4.701667e-003 0.000000e+000 3.429000e-003
    endloop
  endfacet
  facet normal 0.000000e+000 0.000000e+000 -1.000000e+000
    outer loop
      vertex 4.701667e-003 2.997200e-006 3.429000e-003
      vertex 4.701667e-003 0.000000e+000 3.429000e-003
      vertex 3.939667e-003 2.997200e-006 3.429000e-003
    endloop
  endfacet
  facet normal 0.000000e+000 0.000000e+000 -1.000000e+000
    outer loop
      vertex 3.939667e-003 2.997200e-006 3.429000e-003
      vertex 4.701667e-003 0.000000e+000 3.429000e-003
      vertex 3.939667e-003 0.000000e+000 3.429000e-003
    endloop
  endfacet
  facet normal -1.000000e+000 0.000000e+000 0.000000e+000
    outer loop
      vertex 3.939667e-003 0.000000e+000 3.747770e-003
      vertex 3.939667e-003 2.997200e-006 3.747770e-003
      vertex 3.939667e-003 0.000000e+000 3.429000e-003
    endloop
  endfacet
  facet normal -1.000000e+000 0.000000e+000 0.000000e+000
    outer loop
      vertex 3.939667e-003 0.000000e+000 3.429000e-003
      vertex 3.939667e-003 2.997200e-006 3.747770e-003
      vertex 3.939667e-003 2.997200e-006 3.429000e-003
    endloop
  endfacet
  facet normal 0.000000e+000 0.000000e+000 1.000000e+000
    outer loop
      vertex 3.939667e-003 2.997200e-006 4.191000e-003
      vertex 3.939667e-003 0.000000e+000 4.191000e-003
      vertex 4.701667e-003 2.997200e-006 4.191000e-003
    endloop
  endfacet
  facet normal 0.000000e+000 0.000000e+000 1.000000e+000
    outer loop
      vertex 4.701667e-003 2.997200e-006 4.191000e-003
      vertex 3.939667e-003 0.000000e+000 4.191000e-003
      vertex 4.701667e-003 0.000000e+000 4.191000e-003
    endloop
  endfacet
  facet normal -1.000000e+000 0.000000e+000 0.000000e+000
    outer loop
      vertex 3.939667e-003 2.997200e-006 3.872230e-003
      vertex 3.939667e-003 0.000000e+000 3.872230e-003
      vertex 3.939667e-003 2.997200e-006 4.191000e-003
    endloop
  endfacet
  facet normal -1.000000e+000 0.000000e+000 0.000000e+000
    outer loop
      vertex 3.939667e-003 2.997200e-006 4.191000e-003
      vertex 3.939667e-003 0.000000e+000 3.872230e-003
      vertex 3.939667e-003 0.000000e+000 4.191000e-003
    endloop
  endfacet
  facet normal 9.772839e-001 0.000000e+000 1.725460e-001
    outer loop
      vertex 4.566012e-003 0.000000e+000 3.875740e-003
      vertex 4.566012e-003 -6.350000e-004 3.875740e-003
      vertex 4.574667e-003 0.000000e+000 3.810000e-003
    endloop
  endfacet
  facet normal 9.326257e-001 0.000000e+000 3.392127e-001
    outer loop
      vertex 4.566012e-003 0.000000e+000 3.875740e-003
      vertex 4.540637e-003 -6.350000e-004 3.937000e-003
      vertex 4.566012e-003 -6.350000e-004 3.875740e-003
    endloop
  endfacet
  facet normal 8.993255e-001 0.000000e+000 4.196063e-001
    outer loop
      vertex 4.566012e-003 0.000000e+000 3.875740e-003
      vertex 4.540637e-003 0.000000e+000 3.937000e-003
      vertex 4.540637e-003 -6.350000e-004 3.937000e-003
    endloop
  endfacet
  facet normal 8.130525e-001 0.000000e+000 5.690356e-001
    outer loop
      vertex 4.540637e-003 -6.350000e-004 3.937000e-003
      vertex 4.540637e-003 0.000000e+000 3.937000e-003
      vertex 4.500272e-003 -6.350000e-004 3.989605e-003
    endloop
  endfacet
  facet normal 7.600797e-001 0.000000e+000 6.380712e-001
    outer loop
      vertex 4.500272e-003 -6.350000e-004 3.989605e-003
      vertex 4.540637e-003 0.000000e+000 3.937000e-003
      vertex 4.500272e-003 0.000000e+000 3.989605e-003
    endloop
  endfacet
  facet normal 5.690356e-001 0.000000e+000 8.130525e-001
    outer loop
      vertex 4.447667e-003 -6.350000e-004 4.029970e-003
      vertex 4.500272e-003 0.000000e+000 3.989605e-003
      vertex 4.447667e-003 0.000000e+000 4.029970e-003
    endloop
  endfacet
  facet normal 3.392127e-001 0.000000e+000 9.326257e-001
    outer loop
      vertex 4.386407e-003 -6.350000e-004 4.055345e-003
      vertex 4.447667e-003 0.000000e+000 4.029970e-003
      vertex 4.386407e-003 0.000000e+000 4.055345e-003
    endloop
  endfacet
  facet normal 8.627302e-002 0.000000e+000 9.886419e-001
    outer loop
      vertex 4.320667e-003 -6.350000e-004 4.064000e-003
      vertex 4.386407e-003 0.000000e+000 4.055345e-003
      vertex 4.320667e-003 0.000000e+000 4.064000e-003
    endloop
  endfacet
  facet normal -1.725460e-001 0.000000e+000 9.772839e-001
    outer loop
      vertex 4.254927e-003 -6.350000e-004 4.055345e-003
      vertex 4.320667e-003 0.000000e+000 4.064000e-003
      vertex 4.254927e-003 0.000000e+000 4.055345e-003
    endloop
  endfacet
  facet normal -4.196063e-001 0.000000e+000 8.993255e-001
    outer loop
      vertex 4.193667e-003 -6.350000e-004 4.029970e-003
      vertex 4.254927e-003 0.000000e+000 4.055345e-003
      vertex 4.193667e-003 0.000000e+000 4.029970e-003
    endloop
  endfacet
  facet normal -6.380712e-001 0.000000e+000 7.600797e-001
    outer loop
      vertex 4.141062e-003 -6.350000e-004 3.989605e-003
      vertex 4.193667e-003 0.000000e+000 4.029970e-003
      vertex 4.141062e-003 0.000000e+000 3.989605e-003
    endloop
  endfacet
  facet normal -8.130525e-001 0.000000e+000 5.690356e-001
    outer loop
      vertex 4.100697e-003 -6.350000e-004 3.937000e-003
      vertex 4.141062e-003 0.000000e+000 3.989605e-003
      vertex 4.100697e-003 0.000000e+000 3.937000e-003
    endloop
  endfacet
  facet normal -9.326257e-001 0.000000e+000 3.392127e-001
    outer loop
      vertex 4.075322e-003 -6.350000e-004 3.875740e-003
      vertex 4.100697e-003 0.000000e+000 3.937000e-003
      vertex 4.075322e-003 0.000000e+000 3.875740e-003
    endloop
  endfacet
  facet normal -9.886419e-001 0.000000e+000 8.627302e-002
    outer loop
      vertex 4.066667e-003 -6.350000e-004 3.810000e-003
      vertex 4.075322e-003 0.000000e+000 3.875740e-003
      vertex 4.066667e-003 0.000000e+000 3.810000e-003
    endloop
  endfacet
  facet normal -9.772839e-001 0.000000e+000 -1.725460e-001
    outer loop
      vertex 4.075322e-003 -6.350000e-004 3.744260e-003
      vertex 4.066667e-003 0.000000e+000 3.810000e-003
      vertex 4.075322e-003 0.000000e+000 3.744260e-003
    endloop
  endfacet
  facet normal -8.993255e-001 0.000000e+000 -4.196063e-001
    outer loop
      vertex 4.100697e-003 -6.350000e-004 3.683000e-003
      vertex 4.075322e-003 0.000000e+000 3.744260e-003
      vertex 4.100697e-003 0.000000e+000 3.683000e-003
    endloop
  endfacet
  facet normal -7.600797e-001 0.000000e+000 -6.380712e-001
    outer loop
      vertex 4.141062e-003 -6.350000e-004 3.630395e-003
      vertex 4.100697e-003 0.000000e+000 3.683000e-003
      vertex 4.141062e-003 0.000000e+000 3.630395e-003
    endloop
  endfacet
  facet normal -5.690356e-001 0.000000e+000 -8.130525e-001
    outer loop
      vertex 4.193667e-003 -6.350000e-004 3.590030e-003
      vertex 4.141062e-003 0.000000e+000 3.630395e-003
      vertex 4.193667e-003 0.000000e+000 3.590030e-003
    endloop
  endfacet
  facet normal -3.392127e-001 0.000000e+000 -9.326257e-001
    outer loop
      vertex 4.254927e-003 -6.350000e-004 3.564655e-003
      vertex 4.193667e-003 0.000000e+000 3.590030e-003
      vertex 4.254927e-003 0.000000e+000 3.564655e-003
    endloop
  endfacet
  facet normal -8.627302e-002 0.000000e+000 -9.886419e-001
    outer loop
      vertex 4.320667e-003 -6.350000e-004 3.556000e-003
      vertex 4.254927e-003 0.000000e+000 3.564655e-003
      vertex 4.320667e-003 0.000000e+000 3.556000e-003
    endloop
  endfacet
  facet normal 1.725460e-001 0.000000e+000 -9.772839e-001
    outer loop
      vertex 4.386407e-003 -6.350000e-004 3.564655e-003
      vertex 4.320667e-003 0.000000e+000 3.556000e-003
      vertex 4.386407e-003 0.000000e+000 3.564655e-003
    endloop
  endfacet
  facet normal 4.196063e-001 0.000000e+000 -8.993255e-001
    outer loop
      vertex 4.447667e-003 -6.350000e-004 3.590030e-003
      vertex 4.386407e-003 0.000000e+000 3.564655e-003
      vertex 4.447667e-003 0.000000e+000 3.590030e-003
    endloop
  endfacet
  facet normal 6.380712e-001 0.000000e+000 -7.600797e-001
    outer loop
      vertex 4.500272e-003 -6.350000e-004 3.630395e-003
      vertex 4.447667e-003 0.000000e+000 3.590030e-003
      vertex 4.500272e-003 0.000000e+000 3.630395e-003
    endloop
  endfacet
  facet normal 8.130525e-001 0.000000e+000 -5.690356e-001
    outer loop
      vertex 4.540637e-003 -6.350000e-004 3.683000e-003
      vertex 4.500272e-003 0.000000e+000 3.630395e-003
      vertex 4.540637e-003 0.000000e+000 3.683000e-003
    endloop
  endfacet
  facet normal 9.326257e-001 0.000000e+000 -3.392127e-001
    outer loop
      vertex 4.566012e-003 -6.350000e-004 3.744260e-003
      vertex 4.540637e-003 0.000000e+000 3.683000e-003
      vertex 4.566012e-003 0.000000e+000 3.744260e-003
    endloop
  endfacet
  facet normal 9.886419e-001 0.000000e+000 -8.627302e-002
    outer loop
      vertex 4.574667e-003 -6.350000e-004 3.810000e-003
      vertex 4.566012e-003 0.000000e+000 3.744260e-003
      vertex 4.574667e-003 0.000000e+000 3.810000e-003
    endloop
  endfacet
  facet normal 9.886419e-001 0.000000e+000 8.627302e-002
    outer loop
      vertex 4.566012e-003 -6.350000e-004 3.875740e-003
      vertex 4.574667e-003 -6.350000e-004 3.810000e-003
      vertex 4.574667e-003 0.000000e+000 3.810000e-003
    endloop
  endfacet
  facet normal 6.380712e-001 0.000000e+000 7.600797e-001
    outer loop
      vertex 4.500272e-003 -6.350000e-004 3.989605e-003
      vertex 4.500272e-003 0.000000e+000 3.989605e-003
      vertex 4.447667e-003 -6.350000e-004 4.029970e-003
    endloop
  endfacet
  facet normal 4.196063e-001 0.000000e+000 8.993255e-001
    outer loop
      vertex 4.447667e-003 -6.350000e-004 4.029970e-003
      vertex 4.447667e-003 0.000000e+000 4.029970e-003
      vertex 4.386407e-003 -6.350000e-004 4.055345e-003
    endloop
  endfacet
  facet normal 1.725460e-001 0.000000e+000 9.772839e-001
    outer loop
      vertex 4.386407e-003 -6.350000e-004 4.055345e-003
      vertex 4.386407e-003 0.000000e+000 4.055345e-003
      vertex 4.320667e-003 -6.350000e-004 4.064000e-003
    endloop
  endfacet
  facet normal -8.627302e-002 0.000000e+000 9.886419e-001
    outer loop
      vertex 4.320667e-003 -6.350000e-004 4.064000e-003
      vertex 4.320667e-003 0.000000e+000 4.064000e-003
      vertex 4.254927e-003 -6.350000e-004 4.055345e-003
    endloop
  endfacet
  facet normal -3.392127e-001 0.000000e+000 9.326257e-001
    outer loop
      vertex 4.254927e-003 -6.350000e-004 4.055345e-003
      vertex 4.254927e-003 0.000000e+000 4.055345e-003
      vertex 4.193667e-003 -6.350000e-004 4.029970e-003
    endloop
  endfacet
  facet normal -5.690356e-001 0.000000e+000 8.130525e-001
    outer loop
      vertex 4.193667e-003 -6.350000e-004 4.029970e-003
      vertex 4.193667e-003 0.000000e+000 4.029970e-003
      vertex 4.141062e-003 -6.350000e-004 3.989605e-003
    endloop
  endfacet
  facet normal -7.600797e-001 0.000000e+000 6.380712e-001
    outer loop
      vertex 4.141062e-003 -6.350000e-004 3.989605e-003
      vertex 4.141062e-003 0.000000e+000 3.989605e-003
      vertex 4.100697e-003 -6.350000e-004 3.937000e-003
    endloop
  endfacet
  facet normal -8.993255e-001 0.000000e+000 4.196063e-001
    outer loop
      vertex 4.100697e-003 -6.350000e-004 3.937000e-003
      vertex 4.100697e-003 0.000000e+000 3.937000e-003
      vertex 4.075322e-003 -6.350000e-004 3.875740e-003
    endloop
  endfacet
  facet normal -9.772839e-001 0.000000e+000 1.725460e-001
    outer loop
      vertex 4.075322e-003 -6.350000e-004 3.875740e-003
      vertex 4.075322e-003 0.000000e+000 3.875740e-003
      vertex 4.066667e-003 -6.350000e-004 3.810000e-003
    endloop
  endfacet
  facet normal -9.886419e-001 0.000000e+000 -8.627302e-002
    outer loop
      vertex 4.066667e-003 -6.350000e-004 3.810000e-003
      vertex 4.066667e-003 0.000000e+000 3.810000e-003
      vertex 4.075322e-003 -6.350000e-004 3.744260e-003
    endloop
  endfacet
  facet normal -9.326257e-001 0.000000e+000 -3.392127e-001
    outer loop
      vertex 4.075322e-003 -6.350000e-004 3.744260e-003
      vertex 4.075322e-003 0.000000e+000 3.744260e-003
      vertex 4.100697e-003 -6.350000e-004 3.683000e-003
    endloop
  endfacet
  facet normal -8.130525e-001 0.000000e+000 -5.690356e-001
    outer loop
      vertex 4.100697e-003 -6.350000e-004 3.683000e-003
      vertex 4.100697e-003 0.000000e+000 3.683000e-003
      vertex 4.141062e-003 -6.350000e-004 3.630395e-003
    endloop
  endfacet
  facet normal -6.380712e-001 0.000000e+000 -7.600797e-001
    outer loop
      vertex 4.141062e-003 -6.350000e-004 3.630395e-003
      vertex 4.141062e-003 0.000000e+000 3.630395e-003
      vertex 4.193667e-003 -6.350000e-004 3.590030e-003
    endloop
  endfacet
  facet normal -4.196063e-001 0.000000e+000 -8.993255e-001
    outer loop
      vertex 4.193667e-003 -6.350000e-004 3.590030e-003
      vertex 4.193667e-003 0.000000e+000 3.590030e-003
      vertex 4.254927e-003 -6.350000e-004 3.564655e-003
    endloop
  endfacet
  facet normal -1.725460e-001 0.000000e+000 -9.772839e-001
    outer loop
      vertex 4.254927e-003 -6.350000e-004 3.564655e-003
      vertex 4.254927e-003 0.000000e+000 3.564655e-003
      vertex 4.320667e-003 -6.350000e-004 3.556000e-003
    endloop
  endfacet
  facet normal 8.627302e-002 0.000000e+000 -9.886419e-001
    outer loop
      vertex 4.320667e-003 -6.350000e-004 3.556000e-003
      vertex 4.320667e-003 0.000000e+000 3.556000e-003
      vertex 4.386407e-003 -6.350000e-004 3.564655e-003
    endloop
  endfacet
  facet normal 3.392127e-001 0.000000e+000 -9.326257e-001
    outer loop
      vertex 4.386407e-003 -6.350000e-004 3.564655e-003
      vertex 4.386407e-003 0.000000e+000 3.564655e-003
      vertex 4.447667e-003 -6.350000e-004 3.590030e-003
    endloop
  endfacet
  facet normal 5.690356e-001 0.000000e+000 -8.130525e-001
    outer loop
      vertex 4.447667e-003 -6.350000e-004 3.590030e-003
      vertex 4.447667e-003 0.000000e+000 3.590030e-003
      vertex 4.500272e-003 -6.350000e-004 3.630395e-003
    endloop
  endfacet
  facet normal 7.600797e-001 0.000000e+000 -6.380712e-001
    outer loop
      vertex 4.500272e-003 -6.350000e-004 3.630395e-003
      vertex 4.500272e-003 0.000000e+000 3.630395e-003
      vertex 4.540637e-003 -6.350000e-004 3.683000e-003
    endloop
  endfacet
  facet normal 8.993255e-001 0.000000e+000 -4.196063e-001
    outer loop
      vertex 4.540637e-003 -6.350000e-004 3.683000e-003
      vertex 4.540637e-003 0.000000e+000 3.683000e-003
      vertex 4.566012e-003 -6.350000e-004 3.744260e-003
    endloop
  endfacet
  facet normal 9.772839e-001 0.000000e+000 -1.725460e-001
    outer loop
      vertex 4.566012e-003 -6.350000e-004 3.744260e-003
      vertex 4.566012e-003 0.000000e+000 3.744260e-003
      vertex 4.574667e-003 -6.350000e-004 3.810000e-003
    endloop
  endfacet
  facet normal 0.000000e+000 -1.000000e+000 0.000000e+000
    outer loop
      vertex 4.566012e-003 -6.350000e-004 3.875740e-003
      vertex 4.100697e-003 -6.350000e-004 3.937000e-003
      vertex 4.574667e-003 -6.350000e-004 3.810000e-003
    endloop
  endfacet
  facet normal 0.000000e+000 -1.000000e+000 0.000000e+000
    outer loop
      vertex 4.566012e-003 -6.350000e-004 3.875740e-003
      vertex 4.540637e-003 -6.350000e-004 3.937000e-003
      vertex 4.100697e-003 -6.350000e-004 3.937000e-003
    endloop
  endfacet
  facet normal 0.000000e+000 -1.000000e+000 0.000000e+000
    outer loop
      vertex 4.100697e-003 -6.350000e-004 3.937000e-003
      vertex 4.540637e-003 -6.350000e-004 3.937000e-003
      vertex 4.141062e-003 -6.350000e-004 3.989605e-003
    endloop
  endfacet
  facet normal 0.000000e+000 -1.000000e+000 0.000000e+000
    outer loop
      vertex 4.141062e-003 -6.350000e-004 3.989605e-003
      vertex 4.540637e-003 -6.350000e-004 3.937000e-003
      vertex 4.500272e-003 -6.350000e-004 3.989605e-003
    endloop
  endfacet
  facet normal 0.000000e+000 -1.000000e+000 0.000000e+000
    outer loop
      vertex 4.193667e-003 -6.350000e-004 4.029970e-003
      vertex 4.500272e-003 -6.350000e-004 3.989605e-003
      vertex 4.254927e-003 -6.350000e-004 4.055345e-003
    endloop
  endfacet
  facet normal 0.000000e+000 -1.000000e+000 0.000000e+000
    outer loop
      vertex 4.193667e-003 -6.350000e-004 4.029970e-003
      vertex 4.141062e-003 -6.350000e-004 3.989605e-003
      vertex 4.500272e-003 -6.350000e-004 3.989605e-003
    endloop
  endfacet
  facet normal 0.000000e+000 -1.000000e+000 0.000000e+000
    outer loop
      vertex 4.447667e-003 -6.350000e-004 4.029970e-003
      vertex 4.386407e-003 -6.350000e-004 4.055345e-003
      vertex 4.500272e-003 -6.350000e-004 3.989605e-003
    endloop
  endfacet
  facet normal 0.000000e+000 -1.000000e+000 0.000000e+000
    outer loop
      vertex 4.500272e-003 -6.350000e-004 3.989605e-003
      vertex 4.386407e-003 -6.350000e-004 4.055345e-003
      vertex 4.320667e-003 -6.350000e-004 4.064000e-003
    endloop
  endfacet
  facet normal 0.000000e+000 -1.000000e+000 0.000000e+000
    outer loop
      vertex 4.254927e-003 -6.350000e-004 4.055345e-003
      vertex 4.500272e-003 -6.350000e-004 3.989605e-003
      vertex 4.320667e-003 -6.350000e-004 4.064000e-003
    endloop
  endfacet
  facet normal 0.000000e+000 -1.000000e+000 0.000000e+000
    outer loop
      vertex 4.100697e-003 -6.350000e-004 3.937000e-003
      vertex 4.075322e-003 -6.350000e-004 3.875740e-003
      vertex 4.574667e-003 -6.350000e-004 3.810000e-003
    endloop
  endfacet
  facet normal 0.000000e+000 -1.000000e+000 0.000000e+000
    outer loop
      vertex 4.574667e-003 -6.350000e-004 3.810000e-003
      vertex 4.075322e-003 -6.350000e-004 3.875740e-003
      vertex 4.066667e-003 -6.350000e-004 3.810000e-003
    endloop
  endfacet
  facet normal 0.000000e+000 -1.000000e+000 0.000000e+000
    outer loop
      vertex 4.566012e-003 -6.350000e-004 3.744260e-003
      vertex 4.066667e-003 -6.350000e-004 3.810000e-003
      vertex 4.540637e-003 -6.350000e-004 3.683000e-003
    endloop
  endfacet
  facet normal 0.000000e+000 -1.000000e+000 0.000000e+000
    outer loop
      vertex 4.566012e-003 -6.350000e-004 3.744260e-003
      vertex 4.574667e-003 -6.350000e-004 3.810000e-003
      vertex 4.066667e-003 -6.350000e-004 3.810000e-003
    endloop
  endfacet
  facet normal 0.000000e+000 -1.000000e+000 0.000000e+000
    outer loop
      vertex 4.066667e-003 -6.350000e-004 3.810000e-003
      vertex 4.075322e-003 -6.350000e-004 3.744260e-003
      vertex 4.540637e-003 -6.350000e-004 3.683000e-003
    endloop
  endfacet
  facet normal 0.000000e+000 -1.000000e+000 0.000000e+000
    outer loop
      vertex 4.540637e-003 -6.350000e-004 3.683000e-003
      vertex 4.075322e-003 -6.350000e-004 3.744260e-003
      vertex 4.100697e-003 -6.350000e-004 3.683000e-003
    endloop
  endfacet
  facet normal 0.000000e+000 -1.000000e+000 0.000000e+000
    outer loop
      vertex 4.500272e-003 -6.350000e-004 3.630395e-003
      vertex 4.100697e-003 -6.350000e-004 3.683000e-003
      vertex 4.141062e-003 -6.350000e-004 3.630395e-003
    endloop
  endfacet
  facet normal 0.000000e+000 -1.000000e+000 0.000000e+000
    outer loop
      vertex 4.447667e-003 -6.350000e-004 3.590030e-003
      vertex 4.141062e-003 -6.350000e-004 3.630395e-003
      vertex 4.386407e-003 -6.350000e-004 3.564655e-003
    endloop
  endfacet
  facet normal 0.000000e+000 -1.000000e+000 0.000000e+000
    outer loop
      vertex 4.447667e-003 -6.350000e-004 3.590030e-003
      vertex 4.500272e-003 -6.350000e-004 3.630395e-003
      vertex 4.141062e-003 -6.350000e-004 3.630395e-003
    endloop
  endfacet
  facet normal 0.000000e+000 -1.000000e+000 0.000000e+000
    outer loop
      vertex 4.540637e-003 -6.350000e-004 3.683000e-003
      vertex 4.100697e-003 -6.350000e-004 3.683000e-003
      vertex 4.500272e-003 -6.350000e-004 3.630395e-003
    endloop
  endfacet
  facet normal 0.000000e+000 -1.000000e+000 0.000000e+000
    outer loop
      vertex 4.193667e-003 -6.350000e-004 3.590030e-003
      vertex 4.254927e-003 -6.350000e-004 3.564655e-003
      vertex 4.141062e-003 -6.350000e-004 3.630395e-003
    endloop
  endfacet
  facet normal 0.000000e+000 -1.000000e+000 0.000000e+000
    outer loop
      vertex 4.141062e-003 -6.350000e-004 3.630395e-003
      vertex 4.254927e-003 -6.350000e-004 3.564655e-003
      vertex 4.320667e-003 -6.350000e-004 3.556000e-003
    endloop
  endfacet
  facet normal 0.000000e+000 -1.000000e+000 0.000000e+000
    outer loop
      vertex 4.386407e-003 -6.350000e-004 3.564655e-003
      vertex 4.141062e-003 -6.350000e-004 3.630395e-003
      vertex 4.320667e-003 -6.350000e-004 3.556000e-003
    endloop
  endfacet
  facet normal 0.000000e+000 1.000000e+000 0.000000e+000
    outer loop
      vertex 2.913507e-003 2.997200e-006 1.554734e-003
      vertex 2.667000e-003 2.997200e-006 1.554734e-003
      vertex 2.913507e-003 2.997200e-006 3.747770e-003
    endloop
  endfacet
  facet normal 0.000000e+000 1.000000e+000 0.000000e+000
    outer loop
      vertex 2.913507e-003 2.997200e-006 3.747770e-003
      vertex 2.667000e-003 2.997200e-006 1.554734e-003
      vertex 2.032000e-003 2.997200e-006 1.554734e-003
    endloop
  endfacet
  facet normal 0.000000e+000 1.000000e+000 0.000000e+000
    outer loop
      vertex 1.785493e-003 2.997200e-006 3.747770e-003
      vertex 2.032000e-003 2.997200e-006 1.554734e-003
      vertex 1.785493e-003 2.997200e-006 1.554734e-003
    endloop
  endfacet
  facet normal 0.000000e+000 1.000000e+000 0.000000e+000
    outer loop
      vertex 1.785493e-003 2.997200e-006 3.747770e-003
      vertex 2.913507e-003 2.997200e-006 3.747770e-003
      vertex 2.032000e-003 2.997200e-006 1.554734e-003
    endloop
  endfacet
  facet normal 0.000000e+000 1.000000e+000 0.000000e+000
    outer loop
      vertex 1.785493e-003 2.997200e-006 3.747770e-003
      vertex 2.913507e-003 2.997200e-006 3.872230e-003
      vertex 2.913507e-003 2.997200e-006 3.747770e-003
    endloop
  endfacet
  facet normal 0.000000e+000 1.000000e+000 0.000000e+000
    outer loop
      vertex 1.785493e-003 2.997200e-006 3.747770e-003
      vertex 1.785493e-003 2.997200e-006 3.872230e-003
      vertex 2.913507e-003 2.997200e-006 3.872230e-003
    endloop
  endfacet
  facet normal 0.000000e+000 1.000000e+000 0.000000e+000
    outer loop
      vertex 1.785493e-003 2.997200e-006 3.747770e-003
      vertex 6.506210e-004 2.997200e-006 3.747770e-003
      vertex 1.785493e-003 2.997200e-006 3.872230e-003
    endloop
  endfacet
  facet normal 0.000000e+000 1.000000e+000 0.000000e+000
    outer loop
      vertex 1.785493e-003 2.997200e-006 3.872230e-003
      vertex 6.506210e-004 2.997200e-006 3.747770e-003
      vertex 6.506210e-004 2.997200e-006 3.872230e-003
    endloop
  endfacet
  facet normal 0.000000e+000 1.000000e+000 0.000000e+000
    outer loop
      vertex 2.667000e-003 2.997200e-006 0.000000e+000
      vertex 2.032000e-003 2.997200e-006 0.000000e+000
      vertex 2.667000e-003 2.997200e-006 1.554734e-003
    endloop
  endfacet
  facet normal 0.000000e+000 1.000000e+000 0.000000e+000
    outer loop
      vertex 2.667000e-003 2.997200e-006 1.554734e-003
      vertex 2.032000e-003 2.997200e-006 0.000000e+000
      vertex 2.032000e-003 2.997200e-006 1.554734e-003
    endloop
  endfacet
  facet normal 0.000000e+000 1.000000e+000 0.000000e+000
    outer loop
      vertex 1.785493e-003 2.997200e-006 6.065266e-003
      vertex 2.032000e-003 2.997200e-006 6.065266e-003
      vertex 1.785493e-003 2.997200e-006 3.872230e-003
    endloop
  endfacet
  facet normal 0.000000e+000 1.000000e+000 0.000000e+000
    outer loop
      vertex 1.785493e-003 2.997200e-006 3.872230e-003
      vertex 2.032000e-003 2.997200e-006 6.065266e-003
      vertex 2.913507e-003 2.997200e-006 3.872230e-003
    endloop
  endfacet
  facet normal 0.000000e+000 1.000000e+000 0.000000e+000
    outer loop
      vertex 2.913507e-003 2.997200e-006 3.872230e-003
      vertex 2.032000e-003 2.997200e-006 6.065266e-003
      vertex 2.667000e-003 2.997200e-006 6.065266e-003
    endloop
  endfacet
  facet normal 0.000000e+000 1.000000e+000 0.000000e+000
    outer loop
      vertex 2.913507e-003 2.997200e-006 6.065266e-003
      vertex 2.913507e-003 2.997200e-006 3.872230e-003
      vertex 2.667000e-003 2.997200e-006 6.065266e-003
    endloop
  endfacet
  facet normal 0.000000e+000 1.000000e+000 0.000000e+000
    outer loop
      vertex 2.032000e-003 2.997200e-006 7.620000e-003
      vertex 2.667000e-003 2.997200e-006 7.620000e-003
      vertex 2.032000e-003 2.997200e-006 6.065266e-003
    endloop
  endfacet
  facet normal 0.000000e+000 1.000000e+000 0.000000e+000
    outer loop
      vertex 2.032000e-003 2.997200e-006 6.065266e-003
      vertex 2.667000e-003 2.997200e-006 7.620000e-003
      vertex 2.667000e-003 2.997200e-006 6.065266e-003
    endloop
  endfacet
  facet normal 0.000000e+000 1.000000e+000 0.000000e+000
    outer loop
      vertex 2.913507e-003 2.997200e-006 3.872230e-003
      vertex 3.939667e-003 2.997200e-006 3.872230e-003
      vertex 2.913507e-003 2.997200e-006 3.747770e-003
    endloop
  endfacet
  facet normal 0.000000e+000 1.000000e+000 0.000000e+000
    outer loop
      vertex 2.913507e-003 2.997200e-006 3.747770e-003
      vertex 3.939667e-003 2.997200e-006 3.872230e-003
      vertex 3.939667e-003 2.997200e-006 3.747770e-003
    endloop
  endfacet
  facet normal 0.000000e+000 1.000000e+000 0.000000e+000
    outer loop
      vertex 3.939667e-003 2.997200e-006 3.747770e-003
      vertex 3.939667e-003 2.997200e-006 3.872230e-003
      vertex 4.701667e-003 2.997200e-006 4.191000e-003
    endloop
  endfacet
  facet normal 0.000000e+000 1.000000e+000 0.000000e+000
    outer loop
      vertex 4.701667e-003 2.997200e-006 3.429000e-003
      vertex 3.939667e-003 2.997200e-006 3.747770e-003
      vertex 4.701667e-003 2.997200e-006 4.191000e-003
    endloop
  endfacet
  facet normal 0.000000e+000 1.000000e+000 0.000000e+000
    outer loop
      vertex 4.701667e-003 2.997200e-006 3.429000e-003
      vertex 3.939667e-003 2.997200e-006 3.429000e-003
      vertex 3.939667e-003 2.997200e-006 3.747770e-003
    endloop
  endfacet
  facet normal 0.000000e+000 1.000000e+000 0.000000e+000
    outer loop
      vertex 3.939667e-003 2.997200e-006 3.872230e-003
      vertex 3.939667e-003 2.997200e-006 4.191000e-003
      vertex 4.701667e-003 2.997200e-006 4.191000e-003
    endloop
  endfacet
endsolid Metal:Line
