solid default:solid1
  facet normal 5.703175e-002 9.950848e-001 0.000000e+000
    outer loop
      vertex 1.400000e+000 8.100000e+000 0.000000e+000
      vertex 1.400000e+000 8.100000e+000 1.000000e+001
      vertex 1.772465e+000 8.067738e+000 0.000000e+000
    endloop
  endfacet
  facet normal -5.703175e-002 9.950848e-001 0.000000e+000
    outer loop
      vertex 1.027535e+000 8.067738e+000 1.000000e+001
      vertex 1.400000e+000 8.100000e+000 1.000000e+001
      vertex 1.400000e+000 8.100000e+000 0.000000e+000
    endloop
  endfacet
  facet normal -3.778430e-001 9.230313e-001 0.000000e+000
    outer loop
      vertex 2.969182e-001 7.811500e+000 0.000000e+000
      vertex 6.586568e-001 7.971261e+000 1.000000e+001
      vertex 6.586568e-001 7.971261e+000 0.000000e+000
    endloop
  endfacet
  facet normal -5.110126e-001 8.570526e-001 0.000000e+000
    outer loop
      vertex -5.419704e-002 7.589993e+000 0.000000e+000
      vertex 2.969182e-001 7.811500e+000 1.000000e+001
      vertex 2.969182e-001 7.811500e+000 0.000000e+000
    endloop
  endfacet
  facet normal -6.473156e-001 7.540838e-001 0.000000e+000
    outer loop
      vertex -7.111669e-001 6.970846e+000 0.000000e+000
      vertex -5.419704e-002 7.589993e+000 1.000000e+001
      vertex -5.419704e-002 7.589993e+000 0.000000e+000
    endloop
  endfacet
  facet normal -7.982006e-001 5.958644e-001 0.000000e+000
    outer loop
      vertex -1.287006e+000 6.137615e+000 0.000000e+000
      vertex -7.111669e-001 6.970846e+000 1.000000e+001
      vertex -7.111669e-001 6.970846e+000 0.000000e+000
    endloop
  endfacet
  facet normal -8.915923e-001 4.470179e-001 0.000000e+000
    outer loop
      vertex -1.759585e+000 5.122321e+000 0.000000e+000
      vertex -1.287006e+000 6.137615e+000 1.000000e+001
      vertex -1.287006e+000 6.137615e+000 0.000000e+000
    endloop
  endfacet
  facet normal -9.479016e-001 3.124826e-001 0.000000e+000
    outer loop
      vertex -2.110742e+000 3.963979e+000 0.000000e+000
      vertex -1.759585e+000 5.122321e+000 1.000000e+001
      vertex -1.759585e+000 5.122321e+000 0.000000e+000
    endloop
  endfacet
  facet normal -2.243803e-001 9.713857e-001 0.000000e+000
    outer loop
      vertex 1.027535e+000 8.067738e+000 0.000000e+000
      vertex 6.586568e-001 7.971261e+000 0.000000e+000
      vertex 1.027535e+000 8.067738e+000 1.000000e+001
    endloop
  endfacet
  facet normal -1.140635e-001 9.901697e-001 0.000000e+000
    outer loop
      vertex 1.027535e+000 8.067738e+000 0.000000e+000
      vertex 1.027535e+000 8.067738e+000 1.000000e+001
      vertex 1.400000e+000 8.100000e+000 0.000000e+000
    endloop
  endfacet
  facet normal -2.776654e-001 9.575169e-001 0.000000e+000
    outer loop
      vertex 6.586568e-001 7.971261e+000 0.000000e+000
      vertex 6.586568e-001 7.971261e+000 1.000000e+001
      vertex 1.027535e+000 8.067738e+000 1.000000e+001
    endloop
  endfacet
  facet normal -4.247354e-001 9.024145e-001 0.000000e+000
    outer loop
      vertex 2.969182e-001 7.811500e+000 0.000000e+000
      vertex 2.969182e-001 7.811500e+000 1.000000e+001
      vertex 6.586568e-001 7.971261e+000 1.000000e+001
    endloop
  endfacet
  facet normal -5.503974e-001 8.323075e-001 0.000000e+000
    outer loop
      vertex -5.419704e-002 7.589993e+000 0.000000e+000
      vertex -5.419704e-002 7.589993e+000 1.000000e+001
      vertex 2.969182e-001 7.811500e+000 1.000000e+001
    endloop
  endfacet
  facet normal -7.048491e-001 7.006051e-001 0.000000e+000
    outer loop
      vertex -7.111669e-001 6.970846e+000 0.000000e+000
      vertex -7.111669e-001 6.970846e+000 1.000000e+001
      vertex -5.419704e-002 7.589993e+000 1.000000e+001
    endloop
  endfacet
  facet normal -8.340185e-001 5.446022e-001 0.000000e+000
    outer loop
      vertex -1.287006e+000 6.137615e+000 0.000000e+000
      vertex -1.287006e+000 6.137615e+000 1.000000e+001
      vertex -7.111669e-001 6.970846e+000 1.000000e+001
    endloop
  endfacet
  facet normal -9.133481e-001 4.006957e-001 0.000000e+000
    outer loop
      vertex -1.759585e+000 5.122321e+000 0.000000e+000
      vertex -1.759585e+000 5.122321e+000 1.000000e+001
      vertex -1.287006e+000 6.137615e+000 1.000000e+001
    endloop
  endfacet
  facet normal -9.606992e-001 2.705917e-001 0.000000e+000
    outer loop
      vertex -2.110742e+000 3.963979e+000 0.000000e+000
      vertex -2.110742e+000 3.963979e+000 1.000000e+001
      vertex -1.759585e+000 5.122321e+000 1.000000e+001
    endloop
  endfacet
  facet normal -9.823312e-001 1.524672e-001 0.000000e+000
    outer loop
      vertex -2.400000e+000 1.400000e+000 1.000000e+001
      vertex -2.110742e+000 3.963979e+000 1.000000e+001
      vertex -2.110742e+000 3.963979e+000 0.000000e+000
    endloop
  endfacet
  facet normal -9.606992e-001 -2.705917e-001 0.000000e+000
    outer loop
      vertex -1.759585e+000 -2.322321e+000 0.000000e+000
      vertex -2.110742e+000 -1.163979e+000 1.000000e+001
      vertex -2.110742e+000 -1.163979e+000 0.000000e+000
    endloop
  endfacet
  facet normal -9.133481e-001 -4.006957e-001 0.000000e+000
    outer loop
      vertex -1.287006e+000 -3.337615e+000 0.000000e+000
      vertex -1.759585e+000 -2.322321e+000 1.000000e+001
      vertex -1.759585e+000 -2.322321e+000 0.000000e+000
    endloop
  endfacet
  facet normal -8.340185e-001 -5.446022e-001 0.000000e+000
    outer loop
      vertex -7.111669e-001 -4.170846e+000 0.000000e+000
      vertex -1.287006e+000 -3.337615e+000 1.000000e+001
      vertex -1.287006e+000 -3.337615e+000 0.000000e+000
    endloop
  endfacet
  facet normal -7.048491e-001 -7.006051e-001 0.000000e+000
    outer loop
      vertex -5.419704e-002 -4.789993e+000 0.000000e+000
      vertex -7.111669e-001 -4.170846e+000 1.000000e+001
      vertex -7.111669e-001 -4.170846e+000 0.000000e+000
    endloop
  endfacet
  facet normal -5.503974e-001 -8.323075e-001 0.000000e+000
    outer loop
      vertex 2.969182e-001 -5.011500e+000 0.000000e+000
      vertex -5.419704e-002 -4.789993e+000 1.000000e+001
      vertex -5.419704e-002 -4.789993e+000 0.000000e+000
    endloop
  endfacet
  facet normal -4.247354e-001 -9.024145e-001 0.000000e+000
    outer loop
      vertex 6.586568e-001 -5.171261e+000 0.000000e+000
      vertex 2.969182e-001 -5.011500e+000 1.000000e+001
      vertex 2.969182e-001 -5.011500e+000 0.000000e+000
    endloop
  endfacet
  facet normal -2.776654e-001 -9.575169e-001 0.000000e+000
    outer loop
      vertex 1.027535e+000 -5.267738e+000 0.000000e+000
      vertex 6.586568e-001 -5.171261e+000 1.000000e+001
      vertex 6.586568e-001 -5.171261e+000 0.000000e+000
    endloop
  endfacet
  facet normal -1.140635e-001 -9.901697e-001 0.000000e+000
    outer loop
      vertex 1.400000e+000 -5.300000e+000 0.000000e+000
      vertex 1.027535e+000 -5.267738e+000 1.000000e+001
      vertex 1.027535e+000 -5.267738e+000 0.000000e+000
    endloop
  endfacet
  facet normal 5.703175e-002 -9.950848e-001 0.000000e+000
    outer loop
      vertex 1.772465e+000 -5.267738e+000 0.000000e+000
      vertex 1.400000e+000 -5.300000e+000 1.000000e+001
      vertex 1.400000e+000 -5.300000e+000 0.000000e+000
    endloop
  endfacet
  facet normal 2.243803e-001 -9.713857e-001 0.000000e+000
    outer loop
      vertex 2.141343e+000 -5.171261e+000 0.000000e+000
      vertex 1.772465e+000 -5.267738e+000 1.000000e+001
      vertex 1.772465e+000 -5.267738e+000 0.000000e+000
    endloop
  endfacet
  facet normal 3.778430e-001 -9.230313e-001 0.000000e+000
    outer loop
      vertex 2.503082e+000 -5.011500e+000 0.000000e+000
      vertex 2.141343e+000 -5.171261e+000 1.000000e+001
      vertex 2.141343e+000 -5.171261e+000 0.000000e+000
    endloop
  endfacet
  facet normal 5.110126e-001 -8.570526e-001 0.000000e+000
    outer loop
      vertex 2.854197e+000 -4.789993e+000 0.000000e+000
      vertex 2.503082e+000 -5.011500e+000 1.000000e+001
      vertex 2.503082e+000 -5.011500e+000 0.000000e+000
    endloop
  endfacet
  facet normal 6.473156e-001 -7.540838e-001 0.000000e+000
    outer loop
      vertex 3.511167e+000 -4.170846e+000 0.000000e+000
      vertex 2.854197e+000 -4.789993e+000 1.000000e+001
      vertex 2.854197e+000 -4.789993e+000 0.000000e+000
    endloop
  endfacet
  facet normal 7.982006e-001 -5.958644e-001 0.000000e+000
    outer loop
      vertex 4.087006e+000 -3.337615e+000 0.000000e+000
      vertex 3.511167e+000 -4.170846e+000 1.000000e+001
      vertex 3.511167e+000 -4.170846e+000 0.000000e+000
    endloop
  endfacet
  facet normal 8.915923e-001 -4.470179e-001 0.000000e+000
    outer loop
      vertex 4.559585e+000 -2.322321e+000 0.000000e+000
      vertex 4.087006e+000 -3.337615e+000 1.000000e+001
      vertex 4.087006e+000 -3.337615e+000 0.000000e+000
    endloop
  endfacet
  facet normal 9.479016e-001 -3.124826e-001 0.000000e+000
    outer loop
      vertex 4.910742e+000 -1.163979e+000 0.000000e+000
      vertex 4.559585e+000 -2.322321e+000 1.000000e+001
      vertex 4.559585e+000 -2.322321e+000 0.000000e+000
    endloop
  endfacet
  facet normal 9.823312e-001 -1.524672e-001 0.000000e+000
    outer loop
      vertex 5.200000e+000 1.400000e+000 0.000000e+000
      vertex 4.910742e+000 -1.163979e+000 1.000000e+001
      vertex 4.910742e+000 -1.163979e+000 0.000000e+000
    endloop
  endfacet
  facet normal -9.911656e-001 -7.623359e-002 0.000000e+000
    outer loop
      vertex -2.400000e+000 1.400000e+000 0.000000e+000
      vertex -2.110742e+000 -1.163979e+000 0.000000e+000
      vertex -2.400000e+000 1.400000e+000 1.000000e+001
    endloop
  endfacet
  facet normal -9.911656e-001 7.623359e-002 0.000000e+000
    outer loop
      vertex -2.400000e+000 1.400000e+000 0.000000e+000
      vertex -2.400000e+000 1.400000e+000 1.000000e+001
      vertex -2.110742e+000 3.963979e+000 0.000000e+000
    endloop
  endfacet
  facet normal -9.823312e-001 -1.524672e-001 0.000000e+000
    outer loop
      vertex -2.110742e+000 -1.163979e+000 0.000000e+000
      vertex -2.110742e+000 -1.163979e+000 1.000000e+001
      vertex -2.400000e+000 1.400000e+000 1.000000e+001
    endloop
  endfacet
  facet normal -9.479016e-001 -3.124826e-001 0.000000e+000
    outer loop
      vertex -1.759585e+000 -2.322321e+000 0.000000e+000
      vertex -1.759585e+000 -2.322321e+000 1.000000e+001
      vertex -2.110742e+000 -1.163979e+000 1.000000e+001
    endloop
  endfacet
  facet normal -8.915923e-001 -4.470179e-001 0.000000e+000
    outer loop
      vertex -1.287006e+000 -3.337615e+000 0.000000e+000
      vertex -1.287006e+000 -3.337615e+000 1.000000e+001
      vertex -1.759585e+000 -2.322321e+000 1.000000e+001
    endloop
  endfacet
  facet normal -7.982006e-001 -5.958644e-001 0.000000e+000
    outer loop
      vertex -7.111669e-001 -4.170846e+000 0.000000e+000
      vertex -7.111669e-001 -4.170846e+000 1.000000e+001
      vertex -1.287006e+000 -3.337615e+000 1.000000e+001
    endloop
  endfacet
  facet normal -6.473156e-001 -7.540838e-001 0.000000e+000
    outer loop
      vertex -5.419704e-002 -4.789993e+000 0.000000e+000
      vertex -5.419704e-002 -4.789993e+000 1.000000e+001
      vertex -7.111669e-001 -4.170846e+000 1.000000e+001
    endloop
  endfacet
  facet normal -5.110126e-001 -8.570526e-001 0.000000e+000
    outer loop
      vertex 2.969182e-001 -5.011500e+000 0.000000e+000
      vertex 2.969182e-001 -5.011500e+000 1.000000e+001
      vertex -5.419704e-002 -4.789993e+000 1.000000e+001
    endloop
  endfacet
  facet normal -3.778430e-001 -9.230313e-001 0.000000e+000
    outer loop
      vertex 6.586568e-001 -5.171261e+000 0.000000e+000
      vertex 6.586568e-001 -5.171261e+000 1.000000e+001
      vertex 2.969182e-001 -5.011500e+000 1.000000e+001
    endloop
  endfacet
  facet normal -2.243803e-001 -9.713857e-001 0.000000e+000
    outer loop
      vertex 1.027535e+000 -5.267738e+000 0.000000e+000
      vertex 1.027535e+000 -5.267738e+000 1.000000e+001
      vertex 6.586568e-001 -5.171261e+000 1.000000e+001
    endloop
  endfacet
  facet normal -5.703175e-002 -9.950848e-001 0.000000e+000
    outer loop
      vertex 1.400000e+000 -5.300000e+000 0.000000e+000
      vertex 1.400000e+000 -5.300000e+000 1.000000e+001
      vertex 1.027535e+000 -5.267738e+000 1.000000e+001
    endloop
  endfacet
  facet normal 1.140635e-001 -9.901697e-001 0.000000e+000
    outer loop
      vertex 1.772465e+000 -5.267738e+000 0.000000e+000
      vertex 1.772465e+000 -5.267738e+000 1.000000e+001
      vertex 1.400000e+000 -5.300000e+000 1.000000e+001
    endloop
  endfacet
  facet normal 2.776654e-001 -9.575169e-001 0.000000e+000
    outer loop
      vertex 2.141343e+000 -5.171261e+000 0.000000e+000
      vertex 2.141343e+000 -5.171261e+000 1.000000e+001
      vertex 1.772465e+000 -5.267738e+000 1.000000e+001
    endloop
  endfacet
  facet normal 4.247354e-001 -9.024145e-001 0.000000e+000
    outer loop
      vertex 2.503082e+000 -5.011500e+000 0.000000e+000
      vertex 2.503082e+000 -5.011500e+000 1.000000e+001
      vertex 2.141343e+000 -5.171261e+000 1.000000e+001
    endloop
  endfacet
  facet normal 5.503974e-001 -8.323075e-001 0.000000e+000
    outer loop
      vertex 2.854197e+000 -4.789993e+000 0.000000e+000
      vertex 2.854197e+000 -4.789993e+000 1.000000e+001
      vertex 2.503082e+000 -5.011500e+000 1.000000e+001
    endloop
  endfacet
  facet normal 7.048491e-001 -7.006051e-001 0.000000e+000
    outer loop
      vertex 3.511167e+000 -4.170846e+000 0.000000e+000
      vertex 3.511167e+000 -4.170846e+000 1.000000e+001
      vertex 2.854197e+000 -4.789993e+000 1.000000e+001
    endloop
  endfacet
  facet normal 8.340185e-001 -5.446022e-001 0.000000e+000
    outer loop
      vertex 4.087006e+000 -3.337615e+000 0.000000e+000
      vertex 4.087006e+000 -3.337615e+000 1.000000e+001
      vertex 3.511167e+000 -4.170846e+000 1.000000e+001
    endloop
  endfacet
  facet normal 9.133481e-001 -4.006957e-001 0.000000e+000
    outer loop
      vertex 4.559585e+000 -2.322321e+000 0.000000e+000
      vertex 4.559585e+000 -2.322321e+000 1.000000e+001
      vertex 4.087006e+000 -3.337615e+000 1.000000e+001
    endloop
  endfacet
  facet normal 9.606992e-001 -2.705917e-001 0.000000e+000
    outer loop
      vertex 4.910742e+000 -1.163979e+000 0.000000e+000
      vertex 4.910742e+000 -1.163979e+000 1.000000e+001
      vertex 4.559585e+000 -2.322321e+000 1.000000e+001
    endloop
  endfacet
  facet normal 9.911656e-001 -7.623359e-002 0.000000e+000
    outer loop
      vertex 5.200000e+000 1.400000e+000 0.000000e+000
      vertex 5.200000e+000 1.400000e+000 1.000000e+001
      vertex 4.910742e+000 -1.163979e+000 1.000000e+001
    endloop
  endfacet
  facet normal 9.911656e-001 7.623359e-002 0.000000e+000
    outer loop
      vertex 4.910742e+000 3.963979e+000 1.000000e+001
      vertex 5.200000e+000 1.400000e+000 1.000000e+001
      vertex 5.200000e+000 1.400000e+000 0.000000e+000
    endloop
  endfacet
  facet normal 9.133481e-001 4.006957e-001 0.000000e+000
    outer loop
      vertex 4.087006e+000 6.137615e+000 0.000000e+000
      vertex 4.559585e+000 5.122321e+000 1.000000e+001
      vertex 4.559585e+000 5.122321e+000 0.000000e+000
    endloop
  endfacet
  facet normal 8.340185e-001 5.446022e-001 0.000000e+000
    outer loop
      vertex 3.511167e+000 6.970846e+000 0.000000e+000
      vertex 4.087006e+000 6.137615e+000 1.000000e+001
      vertex 4.087006e+000 6.137615e+000 0.000000e+000
    endloop
  endfacet
  facet normal 7.048491e-001 7.006051e-001 0.000000e+000
    outer loop
      vertex 2.854197e+000 7.589993e+000 0.000000e+000
      vertex 3.511167e+000 6.970846e+000 1.000000e+001
      vertex 3.511167e+000 6.970846e+000 0.000000e+000
    endloop
  endfacet
  facet normal 5.503974e-001 8.323075e-001 0.000000e+000
    outer loop
      vertex 2.503082e+000 7.811500e+000 0.000000e+000
      vertex 2.854197e+000 7.589993e+000 1.000000e+001
      vertex 2.854197e+000 7.589993e+000 0.000000e+000
    endloop
  endfacet
  facet normal 4.247354e-001 9.024145e-001 0.000000e+000
    outer loop
      vertex 2.141343e+000 7.971261e+000 0.000000e+000
      vertex 2.503082e+000 7.811500e+000 1.000000e+001
      vertex 2.503082e+000 7.811500e+000 0.000000e+000
    endloop
  endfacet
  facet normal 9.606992e-001 2.705917e-001 0.000000e+000
    outer loop
      vertex 4.910742e+000 3.963979e+000 0.000000e+000
      vertex 4.559585e+000 5.122321e+000 0.000000e+000
      vertex 4.910742e+000 3.963979e+000 1.000000e+001
    endloop
  endfacet
  facet normal 9.823312e-001 1.524672e-001 0.000000e+000
    outer loop
      vertex 4.910742e+000 3.963979e+000 0.000000e+000
      vertex 4.910742e+000 3.963979e+000 1.000000e+001
      vertex 5.200000e+000 1.400000e+000 0.000000e+000
    endloop
  endfacet
  facet normal 9.479016e-001 3.124826e-001 0.000000e+000
    outer loop
      vertex 4.559585e+000 5.122321e+000 0.000000e+000
      vertex 4.559585e+000 5.122321e+000 1.000000e+001
      vertex 4.910742e+000 3.963979e+000 1.000000e+001
    endloop
  endfacet
  facet normal 8.915923e-001 4.470179e-001 0.000000e+000
    outer loop
      vertex 4.087006e+000 6.137615e+000 0.000000e+000
      vertex 4.087006e+000 6.137615e+000 1.000000e+001
      vertex 4.559585e+000 5.122321e+000 1.000000e+001
    endloop
  endfacet
  facet normal 7.982006e-001 5.958644e-001 0.000000e+000
    outer loop
      vertex 3.511167e+000 6.970846e+000 0.000000e+000
      vertex 3.511167e+000 6.970846e+000 1.000000e+001
      vertex 4.087006e+000 6.137615e+000 1.000000e+001
    endloop
  endfacet
  facet normal 6.473156e-001 7.540838e-001 0.000000e+000
    outer loop
      vertex 2.854197e+000 7.589993e+000 0.000000e+000
      vertex 2.854197e+000 7.589993e+000 1.000000e+001
      vertex 3.511167e+000 6.970846e+000 1.000000e+001
    endloop
  endfacet
  facet normal 5.110126e-001 8.570526e-001 0.000000e+000
    outer loop
      vertex 2.503082e+000 7.811500e+000 0.000000e+000
      vertex 2.503082e+000 7.811500e+000 1.000000e+001
      vertex 2.854197e+000 7.589993e+000 1.000000e+001
    endloop
  endfacet
  facet normal 3.778430e-001 9.230313e-001 0.000000e+000
    outer loop
      vertex 2.141343e+000 7.971261e+000 0.000000e+000
      vertex 2.141343e+000 7.971261e+000 1.000000e+001
      vertex 2.503082e+000 7.811500e+000 1.000000e+001
    endloop
  endfacet
  facet normal 2.776654e-001 9.575169e-001 0.000000e+000
    outer loop
      vertex 1.772465e+000 8.067738e+000 0.000000e+000
      vertex 2.141343e+000 7.971261e+000 1.000000e+001
      vertex 2.141343e+000 7.971261e+000 0.000000e+000
    endloop
  endfacet
  facet normal 2.243803e-001 9.713857e-001 0.000000e+000
    outer loop
      vertex 1.772465e+000 8.067738e+000 1.000000e+001
      vertex 2.141343e+000 7.971261e+000 1.000000e+001
      vertex 1.772465e+000 8.067738e+000 0.000000e+000
    endloop
  endfacet
  facet normal 1.140635e-001 9.901697e-001 0.000000e+000
    outer loop
      vertex 1.772465e+000 8.067738e+000 1.000000e+001
      vertex 1.772465e+000 8.067738e+000 0.000000e+000
      vertex 1.400000e+000 8.100000e+000 1.000000e+001
    endloop
  endfacet
  facet normal 0.000000e+000 0.000000e+000 1.000000e+000
    outer loop
      vertex -1.759585e+000 -2.322321e+000 1.000000e+001
      vertex 2.854197e+000 -4.789993e+000 1.000000e+001
      vertex 3.511167e+000 -4.170846e+000 1.000000e+001
    endloop
  endfacet
  facet normal 0.000000e+000 0.000000e+000 1.000000e+000
    outer loop
      vertex 2.503082e+000 -5.011500e+000 1.000000e+001
      vertex 2.854197e+000 -4.789993e+000 1.000000e+001
      vertex -1.759585e+000 -2.322321e+000 1.000000e+001
    endloop
  endfacet
  facet normal 0.000000e+000 0.000000e+000 1.000000e+000
    outer loop
      vertex 1.400000e+000 -5.300000e+000 1.000000e+001
      vertex 6.586568e-001 -5.171261e+000 1.000000e+001
      vertex 1.027535e+000 -5.267738e+000 1.000000e+001
    endloop
  endfacet
  facet normal 0.000000e+000 0.000000e+000 1.000000e+000
    outer loop
      vertex 1.772465e+000 -5.267738e+000 1.000000e+001
      vertex 6.586568e-001 -5.171261e+000 1.000000e+001
      vertex 1.400000e+000 -5.300000e+000 1.000000e+001
    endloop
  endfacet
  facet normal 0.000000e+000 0.000000e+000 1.000000e+000
    outer loop
      vertex 2.141343e+000 -5.171261e+000 1.000000e+001
      vertex 6.586568e-001 -5.171261e+000 1.000000e+001
      vertex 1.772465e+000 -5.267738e+000 1.000000e+001
    endloop
  endfacet
  facet normal 0.000000e+000 0.000000e+000 1.000000e+000
    outer loop
      vertex 2.503082e+000 -5.011500e+000 1.000000e+001
      vertex 6.586568e-001 -5.171261e+000 1.000000e+001
      vertex 2.141343e+000 -5.171261e+000 1.000000e+001
    endloop
  endfacet
  facet normal 0.000000e+000 0.000000e+000 1.000000e+000
    outer loop
      vertex 2.969182e-001 -5.011500e+000 1.000000e+001
      vertex 6.586568e-001 -5.171261e+000 1.000000e+001
      vertex 2.503082e+000 -5.011500e+000 1.000000e+001
    endloop
  endfacet
  facet normal 0.000000e+000 0.000000e+000 1.000000e+000
    outer loop
      vertex 2.969182e-001 -5.011500e+000 1.000000e+001
      vertex 2.503082e+000 -5.011500e+000 1.000000e+001
      vertex -5.419704e-002 -4.789993e+000 1.000000e+001
    endloop
  endfacet
  facet normal 0.000000e+000 0.000000e+000 1.000000e+000
    outer loop
      vertex 2.503082e+000 -5.011500e+000 1.000000e+001
      vertex -7.111669e-001 -4.170846e+000 1.000000e+001
      vertex -5.419704e-002 -4.789993e+000 1.000000e+001
    endloop
  endfacet
  facet normal 0.000000e+000 0.000000e+000 1.000000e+000
    outer loop
      vertex -1.287006e+000 -3.337615e+000 1.000000e+001
      vertex -7.111669e-001 -4.170846e+000 1.000000e+001
      vertex 2.503082e+000 -5.011500e+000 1.000000e+001
    endloop
  endfacet
  facet normal 0.000000e+000 0.000000e+000 1.000000e+000
    outer loop
      vertex -1.287006e+000 -3.337615e+000 1.000000e+001
      vertex 2.503082e+000 -5.011500e+000 1.000000e+001
      vertex -1.759585e+000 -2.322321e+000 1.000000e+001
    endloop
  endfacet
  facet normal 0.000000e+000 0.000000e+000 1.000000e+000
    outer loop
      vertex 4.087006e+000 -3.337615e+000 1.000000e+001
      vertex 4.559585e+000 -2.322321e+000 1.000000e+001
      vertex -1.759585e+000 -2.322321e+000 1.000000e+001
    endloop
  endfacet
  facet normal 0.000000e+000 0.000000e+000 1.000000e+000
    outer loop
      vertex 4.087006e+000 -3.337615e+000 1.000000e+001
      vertex -1.759585e+000 -2.322321e+000 1.000000e+001
      vertex 3.511167e+000 -4.170846e+000 1.000000e+001
    endloop
  endfacet
  facet normal 0.000000e+000 0.000000e+000 1.000000e+000
    outer loop
      vertex 4.559585e+000 -2.322321e+000 1.000000e+001
      vertex -2.110742e+000 -1.163979e+000 1.000000e+001
      vertex -1.759585e+000 -2.322321e+000 1.000000e+001
    endloop
  endfacet
  facet normal 0.000000e+000 0.000000e+000 1.000000e+000
    outer loop
      vertex -2.400000e+000 1.400000e+000 1.000000e+001
      vertex -2.110742e+000 -1.163979e+000 1.000000e+001
      vertex 4.559585e+000 -2.322321e+000 1.000000e+001
    endloop
  endfacet
  facet normal 0.000000e+000 0.000000e+000 1.000000e+000
    outer loop
      vertex 4.910742e+000 -1.163979e+000 1.000000e+001
      vertex 5.200000e+000 1.400000e+000 1.000000e+001
      vertex -2.400000e+000 1.400000e+000 1.000000e+001
    endloop
  endfacet
  facet normal 0.000000e+000 0.000000e+000 1.000000e+000
    outer loop
      vertex 4.910742e+000 -1.163979e+000 1.000000e+001
      vertex -2.400000e+000 1.400000e+000 1.000000e+001
      vertex 4.559585e+000 -2.322321e+000 1.000000e+001
    endloop
  endfacet
  facet normal 0.000000e+000 0.000000e+000 1.000000e+000
    outer loop
      vertex 5.200000e+000 1.400000e+000 1.000000e+001
      vertex -2.110742e+000 3.963979e+000 1.000000e+001
      vertex -2.400000e+000 1.400000e+000 1.000000e+001
    endloop
  endfacet
  facet normal 0.000000e+000 0.000000e+000 1.000000e+000
    outer loop
      vertex -1.759585e+000 5.122321e+000 1.000000e+001
      vertex -2.110742e+000 3.963979e+000 1.000000e+001
      vertex 5.200000e+000 1.400000e+000 1.000000e+001
    endloop
  endfacet
  facet normal 0.000000e+000 0.000000e+000 1.000000e+000
    outer loop
      vertex 4.910742e+000 3.963979e+000 1.000000e+001
      vertex 4.559585e+000 5.122321e+000 1.000000e+001
      vertex -1.759585e+000 5.122321e+000 1.000000e+001
    endloop
  endfacet
  facet normal 0.000000e+000 0.000000e+000 1.000000e+000
    outer loop
      vertex 4.910742e+000 3.963979e+000 1.000000e+001
      vertex -1.759585e+000 5.122321e+000 1.000000e+001
      vertex 5.200000e+000 1.400000e+000 1.000000e+001
    endloop
  endfacet
  facet normal 0.000000e+000 0.000000e+000 1.000000e+000
    outer loop
      vertex 4.559585e+000 5.122321e+000 1.000000e+001
      vertex -1.287006e+000 6.137615e+000 1.000000e+001
      vertex -1.759585e+000 5.122321e+000 1.000000e+001
    endloop
  endfacet
  facet normal 0.000000e+000 0.000000e+000 1.000000e+000
    outer loop
      vertex -7.111669e-001 6.970846e+000 1.000000e+001
      vertex -1.287006e+000 6.137615e+000 1.000000e+001
      vertex 4.559585e+000 5.122321e+000 1.000000e+001
    endloop
  endfacet
  facet normal 0.000000e+000 0.000000e+000 1.000000e+000
    outer loop
      vertex -7.111669e-001 6.970846e+000 1.000000e+001
      vertex 4.559585e+000 5.122321e+000 1.000000e+001
      vertex -5.419704e-002 7.589993e+000 1.000000e+001
    endloop
  endfacet
  facet normal 0.000000e+000 0.000000e+000 1.000000e+000
    outer loop
      vertex 4.559585e+000 5.122321e+000 1.000000e+001
      vertex 2.969182e-001 7.811500e+000 1.000000e+001
      vertex -5.419704e-002 7.589993e+000 1.000000e+001
    endloop
  endfacet
  facet normal 0.000000e+000 0.000000e+000 1.000000e+000
    outer loop
      vertex 4.087006e+000 6.137615e+000 1.000000e+001
      vertex 2.969182e-001 7.811500e+000 1.000000e+001
      vertex 4.559585e+000 5.122321e+000 1.000000e+001
    endloop
  endfacet
  facet normal 0.000000e+000 0.000000e+000 1.000000e+000
    outer loop
      vertex 3.511167e+000 6.970846e+000 1.000000e+001
      vertex 2.969182e-001 7.811500e+000 1.000000e+001
      vertex 4.087006e+000 6.137615e+000 1.000000e+001
    endloop
  endfacet
  facet normal 0.000000e+000 0.000000e+000 1.000000e+000
    outer loop
      vertex 2.854197e+000 7.589993e+000 1.000000e+001
      vertex 2.969182e-001 7.811500e+000 1.000000e+001
      vertex 3.511167e+000 6.970846e+000 1.000000e+001
    endloop
  endfacet
  facet normal 0.000000e+000 0.000000e+000 1.000000e+000
    outer loop
      vertex 2.503082e+000 7.811500e+000 1.000000e+001
      vertex 2.969182e-001 7.811500e+000 1.000000e+001
      vertex 2.854197e+000 7.589993e+000 1.000000e+001
    endloop
  endfacet
  facet normal 0.000000e+000 0.000000e+000 1.000000e+000
    outer loop
      vertex 2.141343e+000 7.971261e+000 1.000000e+001
      vertex 2.969182e-001 7.811500e+000 1.000000e+001
      vertex 2.503082e+000 7.811500e+000 1.000000e+001
    endloop
  endfacet
  facet normal 0.000000e+000 0.000000e+000 1.000000e+000
    outer loop
      vertex 6.586568e-001 7.971261e+000 1.000000e+001
      vertex 2.969182e-001 7.811500e+000 1.000000e+001
      vertex 2.141343e+000 7.971261e+000 1.000000e+001
    endloop
  endfacet
  facet normal 0.000000e+000 0.000000e+000 1.000000e+000
    outer loop
      vertex 6.586568e-001 7.971261e+000 1.000000e+001
      vertex 2.141343e+000 7.971261e+000 1.000000e+001
      vertex 1.027535e+000 8.067738e+000 1.000000e+001
    endloop
  endfacet
  facet normal 0.000000e+000 0.000000e+000 1.000000e+000
    outer loop
      vertex 2.141343e+000 7.971261e+000 1.000000e+001
      vertex 1.400000e+000 8.100000e+000 1.000000e+001
      vertex 1.027535e+000 8.067738e+000 1.000000e+001
    endloop
  endfacet
  facet normal 0.000000e+000 0.000000e+000 1.000000e+000
    outer loop
      vertex 1.772465e+000 8.067738e+000 1.000000e+001
      vertex 1.400000e+000 8.100000e+000 1.000000e+001
      vertex 2.141343e+000 7.971261e+000 1.000000e+001
    endloop
  endfacet
  facet normal 0.000000e+000 0.000000e+000 -1.000000e+000
    outer loop
      vertex 4.559585e+000 -2.322321e+000 0.000000e+000
      vertex -5.419704e-002 -4.789993e+000 0.000000e+000
      vertex -7.111669e-001 -4.170846e+000 0.000000e+000
    endloop
  endfacet
  facet normal 0.000000e+000 0.000000e+000 -1.000000e+000
    outer loop
      vertex 2.969182e-001 -5.011500e+000 0.000000e+000
      vertex -5.419704e-002 -4.789993e+000 0.000000e+000
      vertex 4.559585e+000 -2.322321e+000 0.000000e+000
    endloop
  endfacet
  facet normal 0.000000e+000 0.000000e+000 -1.000000e+000
    outer loop
      vertex 1.400000e+000 -5.300000e+000 0.000000e+000
      vertex 2.141343e+000 -5.171261e+000 0.000000e+000
      vertex 1.772465e+000 -5.267738e+000 0.000000e+000
    endloop
  endfacet
  facet normal 0.000000e+000 0.000000e+000 -1.000000e+000
    outer loop
      vertex 1.027535e+000 -5.267738e+000 0.000000e+000
      vertex 2.141343e+000 -5.171261e+000 0.000000e+000
      vertex 1.400000e+000 -5.300000e+000 0.000000e+000
    endloop
  endfacet
  facet normal 0.000000e+000 0.000000e+000 -1.000000e+000
    outer loop
      vertex 6.586568e-001 -5.171261e+000 0.000000e+000
      vertex 2.141343e+000 -5.171261e+000 0.000000e+000
      vertex 1.027535e+000 -5.267738e+000 0.000000e+000
    endloop
  endfacet
  facet normal 0.000000e+000 0.000000e+000 -1.000000e+000
    outer loop
      vertex 2.969182e-001 -5.011500e+000 0.000000e+000
      vertex 2.141343e+000 -5.171261e+000 0.000000e+000
      vertex 6.586568e-001 -5.171261e+000 0.000000e+000
    endloop
  endfacet
  facet normal 0.000000e+000 0.000000e+000 -1.000000e+000
    outer loop
      vertex 2.503082e+000 -5.011500e+000 0.000000e+000
      vertex 2.141343e+000 -5.171261e+000 0.000000e+000
      vertex 2.969182e-001 -5.011500e+000 0.000000e+000
    endloop
  endfacet
  facet normal 0.000000e+000 0.000000e+000 -1.000000e+000
    outer loop
      vertex 2.503082e+000 -5.011500e+000 0.000000e+000
      vertex 2.969182e-001 -5.011500e+000 0.000000e+000
      vertex 2.854197e+000 -4.789993e+000 0.000000e+000
    endloop
  endfacet
  facet normal 0.000000e+000 0.000000e+000 -1.000000e+000
    outer loop
      vertex 2.969182e-001 -5.011500e+000 0.000000e+000
      vertex 3.511167e+000 -4.170846e+000 0.000000e+000
      vertex 2.854197e+000 -4.789993e+000 0.000000e+000
    endloop
  endfacet
  facet normal 0.000000e+000 0.000000e+000 -1.000000e+000
    outer loop
      vertex 4.087006e+000 -3.337615e+000 0.000000e+000
      vertex 3.511167e+000 -4.170846e+000 0.000000e+000
      vertex 2.969182e-001 -5.011500e+000 0.000000e+000
    endloop
  endfacet
  facet normal 0.000000e+000 0.000000e+000 -1.000000e+000
    outer loop
      vertex 4.087006e+000 -3.337615e+000 0.000000e+000
      vertex 2.969182e-001 -5.011500e+000 0.000000e+000
      vertex 4.559585e+000 -2.322321e+000 0.000000e+000
    endloop
  endfacet
  facet normal 0.000000e+000 0.000000e+000 -1.000000e+000
    outer loop
      vertex -1.287006e+000 -3.337615e+000 0.000000e+000
      vertex -1.759585e+000 -2.322321e+000 0.000000e+000
      vertex 4.559585e+000 -2.322321e+000 0.000000e+000
    endloop
  endfacet
  facet normal 0.000000e+000 0.000000e+000 -1.000000e+000
    outer loop
      vertex -1.287006e+000 -3.337615e+000 0.000000e+000
      vertex 4.559585e+000 -2.322321e+000 0.000000e+000
      vertex -7.111669e-001 -4.170846e+000 0.000000e+000
    endloop
  endfacet
  facet normal 0.000000e+000 0.000000e+000 -1.000000e+000
    outer loop
      vertex -1.759585e+000 -2.322321e+000 0.000000e+000
      vertex 4.910742e+000 -1.163979e+000 0.000000e+000
      vertex 4.559585e+000 -2.322321e+000 0.000000e+000
    endloop
  endfacet
  facet normal 0.000000e+000 0.000000e+000 -1.000000e+000
    outer loop
      vertex 5.200000e+000 1.400000e+000 0.000000e+000
      vertex 4.910742e+000 -1.163979e+000 0.000000e+000
      vertex -1.759585e+000 -2.322321e+000 0.000000e+000
    endloop
  endfacet
  facet normal 0.000000e+000 0.000000e+000 -1.000000e+000
    outer loop
      vertex -2.110742e+000 -1.163979e+000 0.000000e+000
      vertex -2.400000e+000 1.400000e+000 0.000000e+000
      vertex 5.200000e+000 1.400000e+000 0.000000e+000
    endloop
  endfacet
  facet normal 0.000000e+000 0.000000e+000 -1.000000e+000
    outer loop
      vertex -2.110742e+000 -1.163979e+000 0.000000e+000
      vertex 5.200000e+000 1.400000e+000 0.000000e+000
      vertex -1.759585e+000 -2.322321e+000 0.000000e+000
    endloop
  endfacet
  facet normal 0.000000e+000 0.000000e+000 -1.000000e+000
    outer loop
      vertex -2.400000e+000 1.400000e+000 0.000000e+000
      vertex 4.910742e+000 3.963979e+000 0.000000e+000
      vertex 5.200000e+000 1.400000e+000 0.000000e+000
    endloop
  endfacet
  facet normal 0.000000e+000 0.000000e+000 -1.000000e+000
    outer loop
      vertex 4.559585e+000 5.122321e+000 0.000000e+000
      vertex 4.910742e+000 3.963979e+000 0.000000e+000
      vertex -2.400000e+000 1.400000e+000 0.000000e+000
    endloop
  endfacet
  facet normal 0.000000e+000 0.000000e+000 -1.000000e+000
    outer loop
      vertex -2.110742e+000 3.963979e+000 0.000000e+000
      vertex -1.759585e+000 5.122321e+000 0.000000e+000
      vertex 4.559585e+000 5.122321e+000 0.000000e+000
    endloop
  endfacet
  facet normal 0.000000e+000 0.000000e+000 -1.000000e+000
    outer loop
      vertex -2.110742e+000 3.963979e+000 0.000000e+000
      vertex 4.559585e+000 5.122321e+000 0.000000e+000
      vertex -2.400000e+000 1.400000e+000 0.000000e+000
    endloop
  endfacet
  facet normal 0.000000e+000 0.000000e+000 -1.000000e+000
    outer loop
      vertex -1.759585e+000 5.122321e+000 0.000000e+000
      vertex 4.087006e+000 6.137615e+000 0.000000e+000
      vertex 4.559585e+000 5.122321e+000 0.000000e+000
    endloop
  endfacet
  facet normal 0.000000e+000 0.000000e+000 -1.000000e+000
    outer loop
      vertex 3.511167e+000 6.970846e+000 0.000000e+000
      vertex 4.087006e+000 6.137615e+000 0.000000e+000
      vertex -1.759585e+000 5.122321e+000 0.000000e+000
    endloop
  endfacet
  facet normal 0.000000e+000 0.000000e+000 -1.000000e+000
    outer loop
      vertex 3.511167e+000 6.970846e+000 0.000000e+000
      vertex -1.759585e+000 5.122321e+000 0.000000e+000
      vertex 2.854197e+000 7.589993e+000 0.000000e+000
    endloop
  endfacet
  facet normal 0.000000e+000 0.000000e+000 -1.000000e+000
    outer loop
      vertex -1.759585e+000 5.122321e+000 0.000000e+000
      vertex 2.503082e+000 7.811500e+000 0.000000e+000
      vertex 2.854197e+000 7.589993e+000 0.000000e+000
    endloop
  endfacet
  facet normal 0.000000e+000 0.000000e+000 -1.000000e+000
    outer loop
      vertex -1.287006e+000 6.137615e+000 0.000000e+000
      vertex 2.503082e+000 7.811500e+000 0.000000e+000
      vertex -1.759585e+000 5.122321e+000 0.000000e+000
    endloop
  endfacet
  facet normal 0.000000e+000 0.000000e+000 -1.000000e+000
    outer loop
      vertex -7.111669e-001 6.970846e+000 0.000000e+000
      vertex 2.503082e+000 7.811500e+000 0.000000e+000
      vertex -1.287006e+000 6.137615e+000 0.000000e+000
    endloop
  endfacet
  facet normal 0.000000e+000 0.000000e+000 -1.000000e+000
    outer loop
      vertex -5.419704e-002 7.589993e+000 0.000000e+000
      vertex 2.503082e+000 7.811500e+000 0.000000e+000
      vertex -7.111669e-001 6.970846e+000 0.000000e+000
    endloop
  endfacet
  facet normal 0.000000e+000 0.000000e+000 -1.000000e+000
    outer loop
      vertex 2.969182e-001 7.811500e+000 0.000000e+000
      vertex 2.503082e+000 7.811500e+000 0.000000e+000
      vertex -5.419704e-002 7.589993e+000 0.000000e+000
    endloop
  endfacet
  facet normal 0.000000e+000 0.000000e+000 -1.000000e+000
    outer loop
      vertex 6.586568e-001 7.971261e+000 0.000000e+000
      vertex 2.503082e+000 7.811500e+000 0.000000e+000
      vertex 2.969182e-001 7.811500e+000 0.000000e+000
    endloop
  endfacet
  facet normal 0.000000e+000 0.000000e+000 -1.000000e+000
    outer loop
      vertex 2.141343e+000 7.971261e+000 0.000000e+000
      vertex 2.503082e+000 7.811500e+000 0.000000e+000
      vertex 6.586568e-001 7.971261e+000 0.000000e+000
    endloop
  endfacet
  facet normal 0.000000e+000 0.000000e+000 -1.000000e+000
    outer loop
      vertex 2.141343e+000 7.971261e+000 0.000000e+000
      vertex 6.586568e-001 7.971261e+000 0.000000e+000
      vertex 1.772465e+000 8.067738e+000 0.000000e+000
    endloop
  endfacet
  facet normal 0.000000e+000 0.000000e+000 -1.000000e+000
    outer loop
      vertex 6.586568e-001 7.971261e+000 0.000000e+000
      vertex 1.400000e+000 8.100000e+000 0.000000e+000
      vertex 1.772465e+000 8.067738e+000 0.000000e+000
    endloop
  endfacet
  facet normal 0.000000e+000 0.000000e+000 -1.000000e+000
    outer loop
      vertex 1.027535e+000 8.067738e+000 0.000000e+000
      vertex 1.400000e+000 8.100000e+000 0.000000e+000
      vertex 6.586568e-001 7.971261e+000 0.000000e+000
    endloop
  endfacet
endsolid default:solid1
